<svg xmlns="http://www.w3.org/2000/svg" xmlns:xlink="http://www.w3.org/1999/xlink" width="200" height="68" viewBox="0 0 200 68">
  <defs>
    <clipPath id="clip-Custom_Size_1">
      <rect width="200" height="68"/>
    </clipPath>
  </defs>
  <g id="Custom_Size_1" data-name="Custom Size – 1" clip-path="url(#clip-Custom_Size_1)">
    <ellipse id="Ellipse_1" data-name="Ellipse 1" cx="25.021" cy="23.79" rx="25.021" ry="23.79" transform="translate(10.426 9.849)" fill="#ffb91a"/>
    <text id="Chashmawala" transform="translate(195.851 41.208)" fill="#050505" font-size="20" font-family="Nunito-SemiBold, Nunito" font-weight="600"><tspan x="-127.9" y="0">Chashmawala</tspan></text>
    <g id="sunglasses" transform="translate(7 22.307)">
      <path id="Path_1" data-name="Path 1" d="M54.51,150.721a1.733,1.733,0,0,0-1.55-3.1l-.753.376a11.926,11.926,0,0,0-4.193-2.887,18.461,18.461,0,0,0-10.462-.707,12.088,12.088,0,0,0-7.361,4.221,9.607,9.607,0,0,0-4.913,0,12.088,12.088,0,0,0-7.361-4.221,18.461,18.461,0,0,0-10.462.707A11.926,11.926,0,0,0,3.263,148l-.753-.376a1.733,1.733,0,0,0-1.55,3.1l.307.154a11.991,11.991,0,0,0,15.282,16.464A18.485,18.485,0,0,0,24.5,160.5c1.969-3,2.729-6.008,2.213-8.642a6.1,6.1,0,0,1,2.041,0c-.516,2.634.243,5.645,2.213,8.642a18.485,18.485,0,0,0,7.953,6.84A12,12,0,0,0,54.2,150.875Zm-39.276,13.41a8.527,8.527,0,0,1-11.127-4.67,8.558,8.558,0,0,1,4.664-11.145,15.1,15.1,0,0,1,8.417-.526c2.984.643,5.126,2.063,5.876,3.9C24.7,155.687,19.963,162.193,15.234,164.132Zm36.129-4.67a8.527,8.527,0,0,1-11.127,4.67c-4.729-1.938-9.465-8.445-7.83-12.443.75-1.834,2.892-3.255,5.876-3.9a16.31,16.31,0,0,1,3.409-.356,13.509,13.509,0,0,1,5.009.882,8.557,8.557,0,0,1,4.664,11.145Z" transform="translate(-0.001 -143.966)"/>
    </g>
  </g>
</svg>
