<?xml version="1.0"?>
<svg xmlns="http://www.w3.org/2000/svg" height="512" viewBox="0 0 64 64" width="512" class="hovered-paths"><g><g id="Browser-Setting-Management"><path d="m57 2h-50a5.006 5.006 0 0 0 -5 5v50a5.006 5.006 0 0 0 5 5h50a5.006 5.006 0 0 0 5-5v-50a5.006 5.006 0 0 0 -5-5zm-50 2h50a3 3 0 0 1 3 3v3h-56v-3a3 3 0 0 1 3-3zm50 56h-50a3 3 0 0 1 -3-3v-45h56v45a3 3 0 0 1 -3 3z" data-original="#000000" class="hovered-path active-path" style="fill:#000000"/><path d="m8 6h2v2h-2z" data-original="#000000" class="hovered-path active-path" style="fill:#000000"/><path d="m12 6h2v2h-2z" data-original="#000000" class="hovered-path active-path" style="fill:#000000"/><path d="m16 6h2v2h-2z" data-original="#000000" class="hovered-path active-path" style="fill:#000000"/><path d="m36 39a1 1 0 0 0 -.858-.99l-2.682-.383a10.86 10.86 0 0 0 -.679-1.639l1.625-2.166a1 1 0 0 0 -.093-1.307l-2.828-2.828a1 1 0 0 0 -1.306-.093l-2.167 1.624a10.9 10.9 0 0 0 -1.639-.678l-.383-2.682a1 1 0 0 0 -.99-.858h-4a1 1 0 0 0 -.99.858l-.383 2.682a10.855 10.855 0 0 0 -1.639.678l-2.167-1.624a1 1 0 0 0 -1.306.093l-2.828 2.828a1 1 0 0 0 -.093 1.307l1.625 2.166a10.86 10.86 0 0 0 -.679 1.639l-2.682.383a1 1 0 0 0 -.858.99v4a1 1 0 0 0 .858.99l2.682.383a10.86 10.86 0 0 0 .679 1.639l-1.625 2.166a1 1 0 0 0 .093 1.307l2.828 2.828a1 1 0 0 0 1.306.093l2.167-1.624a10.855 10.855 0 0 0 1.639.678l.383 2.682a1 1 0 0 0 .99.858h4a1 1 0 0 0 .99-.858l.383-2.682a10.9 10.9 0 0 0 1.639-.678l2.167 1.624a1 1 0 0 0 1.306-.093l2.828-2.828a1 1 0 0 0 .093-1.307l-1.625-2.166a10.86 10.86 0 0 0 .679-1.639l2.682-.383a1 1 0 0 0 .858-.99zm-2 3.133-2.463.352a1 1 0 0 0 -.827.742 8.923 8.923 0 0 1 -.977 2.357 1 1 0 0 0 .061 1.111l1.492 1.99-1.6 1.6-1.991-1.492a1 1 0 0 0 -1.11-.06 8.859 8.859 0 0 1 -2.356.975 1 1 0 0 0 -.744.828l-.352 2.464h-2.266l-.351-2.463a1 1 0 0 0 -.744-.828 8.859 8.859 0 0 1 -2.356-.975 1 1 0 0 0 -1.11.06l-1.991 1.492-1.6-1.6 1.492-1.99a1 1 0 0 0 .061-1.111 8.923 8.923 0 0 1 -.977-2.357 1 1 0 0 0 -.827-.742l-2.464-.353v-2.266l2.463-.352a1 1 0 0 0 .827-.742 8.923 8.923 0 0 1 .977-2.357 1 1 0 0 0 -.061-1.111l-1.492-1.99 1.6-1.6 1.991 1.492a1 1 0 0 0 1.11.06 8.859 8.859 0 0 1 2.356-.975 1 1 0 0 0 .744-.828l.352-2.464h2.266l.351 2.463a1 1 0 0 0 .744.828 8.859 8.859 0 0 1 2.356.975 1 1 0 0 0 1.11-.06l1.991-1.492 1.6 1.6-1.492 1.99a1 1 0 0 0 -.061 1.111 8.923 8.923 0 0 1 .977 2.357 1 1 0 0 0 .827.742l2.464.353z" data-original="#000000" class="hovered-path active-path" style="fill:#000000"/><path d="m22 35a6 6 0 1 0 6 6 6.006 6.006 0 0 0 -6-6zm0 10a4 4 0 1 1 4-4 4 4 0 0 1 -4 4z" data-original="#000000" class="hovered-path active-path" style="fill:#000000"/><path d="m21 31h2v2h-2z" data-original="#000000" class="hovered-path active-path" style="fill:#000000"/><path d="m14.636 33.636h2v2h-2z" transform="matrix(.707 -.707 .707 .707 -19.909 21.195)" data-original="#000000" class="hovered-path active-path" style="fill:#000000"/><path d="m12 40h2v2h-2z" data-original="#000000" class="hovered-path active-path" style="fill:#000000"/><path d="m14.636 46.364h2v2h-2z" transform="matrix(.707 -.707 .707 .707 -28.912 24.929)" data-original="#000000" class="hovered-path active-path" style="fill:#000000"/><path d="m21 49h2v2h-2z" data-original="#000000" class="hovered-path active-path" style="fill:#000000"/><path d="m27.364 46.364h2v2h-2z" transform="matrix(.707 -.707 .707 .707 -25.181 33.92)" data-original="#000000" class="hovered-path active-path" style="fill:#000000"/><path d="m30 40h2v2h-2z" data-original="#000000" class="hovered-path active-path" style="fill:#000000"/><path d="m27.364 33.636h2v2h-2z" transform="matrix(.707 -.707 .707 .707 -16.184 30.209)" data-original="#000000" class="hovered-path active-path" style="fill:#000000"/><path d="m46 44a4 4 0 1 0 4 4 4 4 0 0 0 -4-4zm0 6a2 2 0 1 1 2-2 2 2 0 0 1 -2 2z" data-original="#000000" class="hovered-path active-path" style="fill:#000000"/><path d="m55.242 46.03-1.606-.4a7.884 7.884 0 0 0 -.56-1.349l.853-1.421a1 1 0 0 0 -.151-1.222l-1.414-1.414a1 1 0 0 0 -1.221-.151l-1.422.853a7.908 7.908 0 0 0 -1.35-.56l-.4-1.606a1 1 0 0 0 -.971-.76h-2a1 1 0 0 0 -.97.758l-.4 1.606a7.908 7.908 0 0 0 -1.35.56l-1.422-.853a1 1 0 0 0 -1.221.151l-1.414 1.414a1 1 0 0 0 -.151 1.222l.853 1.421a7.884 7.884 0 0 0 -.56 1.349l-1.606.4a1 1 0 0 0 -.759.972v2a1 1 0 0 0 .758.97l1.606.4a7.884 7.884 0 0 0 .56 1.349l-.853 1.421a1 1 0 0 0 .151 1.222l1.414 1.414a1 1 0 0 0 1.221.151l1.421-.853a7.951 7.951 0 0 0 1.351.56l.4 1.606a1 1 0 0 0 .971.76h2a1 1 0 0 0 .97-.758l.4-1.606a7.951 7.951 0 0 0 1.351-.56l1.421.853a1 1 0 0 0 1.221-.151l1.414-1.414a1 1 0 0 0 .151-1.222l-.853-1.421a7.884 7.884 0 0 0 .56-1.349l1.606-.4a1 1 0 0 0 .759-.972v-2a1 1 0 0 0 -.758-.97zm-1.242 2.189-1.419.355a1 1 0 0 0 -.733.75 5.967 5.967 0 0 1 -.778 1.876 1 1 0 0 0 -.011 1.049l.753 1.256-.31.31-1.256-.754a1 1 0 0 0 -1.049.012 5.948 5.948 0 0 1 -1.873.778 1 1 0 0 0 -.75.733l-.355 1.416h-.438l-.355-1.419a1 1 0 0 0 -.75-.733 5.948 5.948 0 0 1 -1.876-.778 1 1 0 0 0 -1.049-.012l-1.256.754-.311-.31.754-1.256a1 1 0 0 0 -.008-1.046 5.967 5.967 0 0 1 -.778-1.873 1 1 0 0 0 -.733-.75l-1.419-.358v-.438l1.419-.355a1 1 0 0 0 .733-.75 5.967 5.967 0 0 1 .778-1.876 1 1 0 0 0 .011-1.049l-.754-1.251.311-.31 1.257.754a1 1 0 0 0 1.05-.012 5.918 5.918 0 0 1 1.871-.778 1 1 0 0 0 .75-.733l.355-1.421h.438l.355 1.419a1 1 0 0 0 .75.733 5.918 5.918 0 0 1 1.871.778 1 1 0 0 0 1.05.012l1.257-.754.31.31-.753 1.256a1 1 0 0 0 .011 1.046 5.967 5.967 0 0 1 .778 1.873 1 1 0 0 0 .733.75l1.419.358z" data-original="#000000" class="hovered-path active-path" style="fill:#000000"/><path d="m23.41 21a1 1 0 0 0 -.914 1.405 6.032 6.032 0 0 0 5.504 3.595 5.926 5.926 0 0 0 4.45-2h13.1a5.93 5.93 0 0 0 4.45 2 6.032 6.032 0 0 0 5.5-3.595 1 1 0 0 0 -.91-1.405h-2.972l-.5-1 .5-1h2.972a1 1 0 0 0 .91-1.4 6.032 6.032 0 0 0 -5.5-3.6 5.93 5.93 0 0 0 -4.448 2h-13.102a5.926 5.926 0 0 0 -4.45-2 6.032 6.032 0 0 0 -5.5 3.6 1 1 0 0 0 .91 1.4h2.972l.5 1-.5 1zm5.49-1.447-1-2a1 1 0 0 0 -.9-.553h-1.644a4.01 4.01 0 0 1 2.644-1 3.963 3.963 0 0 1 3.2 1.626.982.982 0 0 0 .973.374h13.85a1 1 0 0 0 .8-.4 3.965 3.965 0 0 1 3.177-1.6 4.01 4.01 0 0 1 2.644 1h-1.644a1 1 0 0 0 -.9.553l-1 2a1 1 0 0 0 0 .894l1 2a1 1 0 0 0 .9.553h1.644a4.01 4.01 0 0 1 -2.644 1 3.965 3.965 0 0 1 -3.179-1.6 1 1 0 0 0 -.8-.4h-13.785a1 1 0 0 0 -1.038.374 3.963 3.963 0 0 1 -3.198 1.626 4.01 4.01 0 0 1 -2.644-1h1.644a1 1 0 0 0 .895-.553l1-2a1 1 0 0 0 .005-.894z" data-original="#000000" class="hovered-path active-path" style="fill:#000000"/></g></g> </svg>
