<?xml version="1.0"?>
<svg xmlns="http://www.w3.org/2000/svg" id="Layer_1" enable-background="new 0 0 512 512" height="512" viewBox="0 0 512 512" width="512"><g><g><path d="m495.075 421.991h-.437c1.516-3.28 2.362-6.931 2.362-10.775v-350.307c0-14.213-11.563-25.775-25.775-25.775h-24.675c-4.142 0-7.5 3.357-7.5 7.5s3.358 7.5 7.5 7.5h24.675c5.941 0 10.775 4.834 10.775 10.775v4.5h-452v-4.5c0-5.941 4.834-10.775 10.775-10.775h370.667c4.142 0 7.5-3.357 7.5-7.5s-3.358-7.5-7.5-7.5h-370.667c-14.212 0-25.775 11.562-25.775 25.775v350.307c0 3.845.846 7.495 2.362 10.775h-.437c-9.333 0-16.925 7.593-16.925 16.925 0 20.926 17.024 37.95 37.951 37.95h22.432c4.142 0 7.5-3.357 7.5-7.5s-3.358-7.5-7.5-7.5h-22.432c-12.655 0-22.951-10.296-22.951-22.95 0-1.062.863-1.925 1.925-1.925h174.077l7.786 8.106c1.415 1.473 3.368 2.305 5.409 2.305h103.605c2.042 0 3.995-.832 5.409-2.305l7.786-8.106h174.077c1.062 0 1.925.863 1.925 1.925 0 12.654-10.296 22.95-22.951 22.95h-379.021c-4.142 0-7.5 3.357-7.5 7.5s3.358 7.5 7.5 7.5h379.022c20.926 0 37.951-17.024 37.951-37.95 0-9.332-7.592-16.925-16.925-16.925zm-177.272 0c-2.042 0-3.995.832-5.409 2.305l-7.786 8.106h-97.215l-7.786-8.106c-1.415-1.473-3.368-2.305-5.409-2.305h-153.423c-5.941 0-10.775-4.834-10.775-10.775v-4.5h208.594c4.142 0 7.5-3.357 7.5-7.5s-3.358-7.5-7.5-7.5h-208.594v-311.307h452v311.307h-208.594c-4.142 0-7.5 3.357-7.5 7.5s3.358 7.5 7.5 7.5h208.594v4.5c0 5.941-4.834 10.775-10.775 10.775z" data-original="#000000" class="active-path" style="fill:#000000"/><path d="m271.047 180.43 24.115-24.115c5.421-5.421 12.627-8.406 20.293-8.406s14.873 2.985 20.293 8.406c5.42 5.42 8.406 12.627 8.406 20.292 0 7.666-2.985 14.873-8.406 20.293l-48.231 48.231c-11.189 11.189-29.397 11.189-40.586 0-2.93-2.928-7.677-2.929-10.607.001-2.929 2.929-2.928 7.678 0 10.606 8.519 8.519 19.709 12.777 30.9 12.777 11.19 0 22.38-4.259 30.899-12.777l48.231-48.231c8.254-8.254 12.799-19.228 12.799-30.9s-4.545-22.646-12.799-30.898c-8.253-8.254-19.227-12.8-30.899-12.8s-22.646 4.546-30.9 12.799l-24.115 24.115c-2.929 2.93-2.929 7.678 0 10.607 2.929 2.927 7.678 2.927 10.607 0z" data-original="#000000" class="active-path" style="fill:#000000"/><path d="m240.953 291.695-24.115 24.115c-5.421 5.421-12.627 8.406-20.293 8.406s-14.873-2.985-20.293-8.406c-11.19-11.189-11.19-29.396 0-40.586l48.231-48.231c5.42-5.42 12.627-8.405 20.293-8.405s14.873 2.985 20.293 8.406c2.929 2.928 7.678 2.928 10.606 0 2.929-2.93 2.929-7.678 0-10.607-8.253-8.253-19.228-12.799-30.9-12.799s-22.646 4.546-30.899 12.799l-48.231 48.23c-17.039 17.039-17.039 44.762 0 61.8 8.253 8.254 19.227 12.8 30.899 12.8s22.646-4.546 30.9-12.799l24.115-24.115c2.929-2.93 2.929-7.678 0-10.607-2.928-2.928-7.677-2.928-10.606-.001z" data-original="#000000" class="active-path" style="fill:#000000"/></g></g> </svg>
