<?xml version="1.0"?>
<svg xmlns="http://www.w3.org/2000/svg" height="512" viewBox="0 0 54 60" width="512"><g><g id="Page-1" fill="none" fill-rule="evenodd"><g id="053---Follow-Podcast" fill="rgb(0,0,0)" fill-rule="nonzero" transform="translate(-1 -1)"><path id="Shape" d="m22.745 54.479 4.446 6.11c.1881545.2589567.4889052.4121914.809.4121914s.6208455-.1532347.809-.4121914l4.446-6.11c13.6235555-2.7032422 22.973738-15.3012263 21.6156084-29.1238261s-12.9814478-24.35984764-26.8706084-24.35984764-25.51247877 10.53724784-26.8706084 24.35984764c-1.35812963 13.8225998 7.99205295 26.4205839 21.6156084 29.1238261zm5.255-51.479c12.9197793.01589012 23.6992455 9.873568 24.8669362 22.7404809 1.1676906 12.8669129-7.6610891 24.504067-20.3669362 26.8455191-.2533824.0472859-.4787203.190585-.629.4l-3.871 5.314-3.872-5.32c-.1502797-.209415-.3756176-.3527141-.629-.4-12.6907521-2.3558236-21.50172068-13.9856487-20.33473817-26.840346 1.16698251-12.8546974 11.92821817-22.70770737 24.83573817-22.739654z" data-original="#000000" class="active-path" style="fill:#FE9A06" data-old_color="#000000"/><path id="Shape" d="m16.664 36.566c-.1440196.3070881-.1225605.6662453.057.954 3.286323 5.2766194 9.0626803 8.4841102 15.279 8.4841102s11.992677-3.2074908 15.279-8.4841102c.1795605-.2877547.2010196-.6469119.057-.954-1.9165199-4.1454781-5.7024324-7.122381-10.183-8.007 3.8531135-2.3134223 5.6895655-6.9131567 4.4892534-11.2441679-1.200312-4.3310111-5.1424897-7.32923538-9.6367534-7.32923538s-8.4364414 2.99822428-9.6367534 7.32923538c-1.2003121 4.3310112.6361399 8.9307456 4.4892534 11.2441679-4.4843394.8821675-8.2746206 3.8592895-10.194 8.007zm7.343-16.566c0-4.418278 3.581722-8 8-8s8 3.581722 8 8-3.581722 8-8 8c-4.4162219-.0049599-7.9950401-3.5837781-8-8zm7.993 10c6.446 0 10.911 2.328 13.283 6.923-2.9717625 4.4254523-7.952334 7.0802516-13.283 7.0802516s-10.3112375-2.6547993-13.283-7.0802516c2.372-4.595 6.837-6.923 13.283-6.923z" data-original="#000000" class="active-path" style="fill:#FE9A06" data-old_color="#000000"/><path id="Shape" d="m7 29h4v4c0 .5522847.4477153 1 1 1s1-.4477153 1-1v-4h4c.5522847 0 1-.4477153 1-1s-.4477153-1-1-1h-4v-4c0-.5522847-.4477153-1-1-1s-1 .4477153-1 1v4h-4c-.55228475 0-1 .4477153-1 1s.44771525 1 1 1z" data-original="#000000" class="active-path" style="fill:#FE9A06" data-old_color="#000000"/></g></g></g> </svg>
