<?xml version="1.0"?>
<svg xmlns="http://www.w3.org/2000/svg" xmlns:xlink="http://www.w3.org/1999/xlink" xmlns:svgjs="http://svgjs.com/svgjs" version="1.1" width="512" height="512" x="0" y="0" viewBox="0 0 512 512" style="enable-background:new 0 0 512 512" xml:space="preserve" class=""><g><g xmlns="http://www.w3.org/2000/svg"><path d="M476,48H36A28.031,28.031,0,0,0,8,76V436a28.031,28.031,0,0,0,28,28H476a28.031,28.031,0,0,0,28-28V76A28.031,28.031,0,0,0,476,48Zm12,388a12.01,12.01,0,0,1-12,12H36a12.01,12.01,0,0,1-12-12V112H488Zm0-340H24V76A12.01,12.01,0,0,1,36,64H476a12.01,12.01,0,0,1,12,12Z" fill="#fe9a06" data-original="#000000" style="" class=""/><path d="M40,88h8a8,8,0,0,0,0-16H40a8,8,0,0,0,0,16Z" fill="#fe9a06" data-original="#000000" style="" class=""/><path d="M72,88h8a8,8,0,0,0,0-16H72a8,8,0,0,0,0,16Z" fill="#fe9a06" data-original="#000000" style="" class=""/><path d="M104,88h8a8,8,0,0,0,0-16h-8a8,8,0,0,0,0,16Z" fill="#fe9a06" data-original="#000000" style="" class=""/><path d="M276,144H236a20.023,20.023,0,0,0-20,20v40a20.023,20.023,0,0,0,20,20h40a20.023,20.023,0,0,0,20-20V164A20.023,20.023,0,0,0,276,144Zm4,60a4,4,0,0,1-4,4H236a4,4,0,0,1-4-4V164a4,4,0,0,1,4-4h40a4,4,0,0,1,4,4Z" fill="#fe9a06" data-original="#000000" style="" class=""/><path d="M276,240H236a20.023,20.023,0,0,0-20,20v40a20.023,20.023,0,0,0,20,20h40a20.023,20.023,0,0,0,20-20V260A20.023,20.023,0,0,0,276,240Zm4,60a4,4,0,0,1-4,4H236a4,4,0,0,1-4-4V260a4,4,0,0,1,4-4h40a4,4,0,0,1,4,4Z" fill="#fe9a06" data-original="#000000" style="" class=""/><path d="M276,336H236a20.023,20.023,0,0,0-20,20v40a20.023,20.023,0,0,0,20,20h40a20.023,20.023,0,0,0,20-20V356A20.023,20.023,0,0,0,276,336Zm4,60a4,4,0,0,1-4,4H236a4,4,0,0,1-4-4V356a4,4,0,0,1,4-4h40a4,4,0,0,1,4,4Z" fill="#fe9a06" data-original="#000000" style="" class=""/><path d="M372,144H332a20.023,20.023,0,0,0-20,20v40a20.023,20.023,0,0,0,20,20h40a20.023,20.023,0,0,0,20-20V164A20.023,20.023,0,0,0,372,144Zm4,60a4,4,0,0,1-4,4H332a4,4,0,0,1-4-4V164a4,4,0,0,1,4-4h40a4,4,0,0,1,4,4Z" fill="#fe9a06" data-original="#000000" style="" class=""/><path d="M372,240H332a20.023,20.023,0,0,0-20,20v40a20.023,20.023,0,0,0,20,20h40a20.023,20.023,0,0,0,20-20V260A20.023,20.023,0,0,0,372,240Zm4,60a4,4,0,0,1-4,4H332a4,4,0,0,1-4-4V260a4,4,0,0,1,4-4h40a4,4,0,0,1,4,4Z" fill="#fe9a06" data-original="#000000" style="" class=""/><path d="M372,336H332a20.023,20.023,0,0,0-20,20v40a20.023,20.023,0,0,0,20,20h40a20.023,20.023,0,0,0,20-20V356A20.023,20.023,0,0,0,372,336Zm4,60a4,4,0,0,1-4,4H332a4,4,0,0,1-4-4V356a4,4,0,0,1,4-4h40a4,4,0,0,1,4,4Z" fill="#fe9a06" data-original="#000000" style="" class=""/><path d="M180,144H140a20.023,20.023,0,0,0-20,20v40a20.023,20.023,0,0,0,20,20h40a20.023,20.023,0,0,0,20-20V164A20.023,20.023,0,0,0,180,144Zm4,60a4,4,0,0,1-4,4H140a4,4,0,0,1-4-4V164a4,4,0,0,1,4-4h40a4,4,0,0,1,4,4Z" fill="#fe9a06" data-original="#000000" style="" class=""/><path d="M180,240H140a20.023,20.023,0,0,0-20,20v40a20.023,20.023,0,0,0,20,20h40a20.023,20.023,0,0,0,20-20V260A20.023,20.023,0,0,0,180,240Zm4,60a4,4,0,0,1-4,4H140a4,4,0,0,1-4-4V260a4,4,0,0,1,4-4h40a4,4,0,0,1,4,4Z" fill="#fe9a06" data-original="#000000" style="" class=""/><path d="M180,336H140a20.023,20.023,0,0,0-20,20v40a20.023,20.023,0,0,0,20,20h40a20.023,20.023,0,0,0,20-20V356A20.023,20.023,0,0,0,180,336Zm4,60a4,4,0,0,1-4,4H140a4,4,0,0,1-4-4V356a4,4,0,0,1,4-4h40a4,4,0,0,1,4,4Z" fill="#fe9a06" data-original="#000000" style="" class=""/></g></g></svg>
