<svg xmlns="http://www.w3.org/2000/svg" viewBox="0 0 883.35 528.36"><defs><style>.cls-1{isolation:isolate;}.cls-15,.cls-2{fill:#f4af9d;}.cls-11,.cls-13,.cls-2,.cls-25,.cls-36,.cls-5,.cls-6{mix-blend-mode:soft-light;}.cls-3,.cls-7{fill:#fca700;}.cls-19,.cls-20,.cls-21,.cls-22,.cls-3,.cls-5,.cls-6{fill-rule:evenodd;}.cls-4{fill:#df641e;}.cls-11,.cls-5{opacity:0.6;}.cls-29,.cls-6{fill:#fff;}.cls-6{opacity:0.5;}.cls-8{fill:#e58927;}.cls-9{fill:#ffef95;}.cls-10{fill:#fbca0d;}.cls-12{fill:#dcd0df;}.cls-14{fill:#111;}.cls-16{fill:#5c5caa;}.cls-17{fill:#f9cbc2;}.cls-18{fill:#b6d2ff;}.cls-19,.cls-30{fill:#e8f5fc;}.cls-20,.cls-33{fill:#e8546b;}.cls-21{fill:#c6e8ff;}.cls-22,.cls-39{fill:#d82f49;}.cls-23{fill:#515193;}.cls-24{fill:#a7c3ea;}.cls-25{opacity:0.2;}.cls-26{fill:#383866;}.cls-27{fill:#d5cad8;}.cls-28{fill:#51518c;}.cls-29{font-size:41.53px;font-family:Poppins-Medium, Poppins;font-weight:500;}.cls-31{fill:#f4b799;}.cls-32{fill:#545193;}.cls-34{fill:#322f59;}.cls-35{fill:#44447f;}.cls-36{opacity:0.4;}.cls-37{fill:#3b3b6b;}.cls-38{fill:#c42c49;}</style></defs><g class="cls-1"><g id="Layer_1" data-name="Layer 1"><ellipse class="cls-2" cx="235.96" cy="511.32" rx="56.95" ry="17.04"/><ellipse class="cls-2" cx="383.74" cy="473.14" rx="130.99" ry="29.96"/><ellipse class="cls-2" cx="699.66" cy="468.09" rx="172.37" ry="37.57"/><path class="cls-3" d="M878.12,534v20.85a4.23,4.23,0,0,1-4.24,4.23H674.32a4.23,4.23,0,0,1-4.23-4.23V534a4.23,4.23,0,0,1,4.23-4.24H873.88A4.24,4.24,0,0,1,878.12,534Z" transform="translate(-37.2 -86.23)"/><rect class="cls-4" x="649.6" y="472.85" width="174.61" height="2.79"/><path class="cls-5" d="M878.12,534v20.85a4.23,4.23,0,0,1-4.24,4.23H786.8c.65-1.83,2.48-3.17,4.26-4.13,8.43-4.59,18.29-5.72,27.89-6.09s19.3-.08,28.66-2.19c2.74-.61,5.6-1.53,7.38-3.7a10.8,10.8,0,0,0,2-4.63,21.19,21.19,0,0,0,0-8.58h16.87A4.24,4.24,0,0,1,878.12,534Z" transform="translate(-37.2 -86.23)"/><path class="cls-6" d="M681.06,531.9A7,7,0,0,0,676.8,533c-1.63,1.29-2,3.59-2.17,5.65q-.46,4.6-.94,9.21a12.38,12.38,0,0,0,.17,4.93,4.18,4.18,0,0,0,3.5,3.08,2.39,2.39,0,0,0,1.76-.62,2.69,2.69,0,0,0,.59-.92c.79-1.86.38-4,.28-6s.27-4.35,2-5.42a6.74,6.74,0,0,1,3.83-.63l8.31.3c2.43.09,5.3,0,6.63-2.07a4.64,4.64,0,0,0-.72-5.44,9.94,9.94,0,0,0-5.12-2.74C690.45,531.24,685.6,531.8,681.06,531.9Z" transform="translate(-37.2 -86.23)"/><path class="cls-3" d="M858.58,501.86v20.86a4.23,4.23,0,0,1-4.24,4.22H654.78a4.23,4.23,0,0,1-4.23-4.22V501.86a4.23,4.23,0,0,1,4.23-4.23H854.34A4.23,4.23,0,0,1,858.58,501.86Z" transform="translate(-37.2 -86.23)"/><rect class="cls-4" x="630.06" y="440.72" width="174.61" height="2.79"/><path class="cls-5" d="M858.58,501.86v20.86a4.23,4.23,0,0,1-4.24,4.22H767.26c.65-1.83,2.49-3.16,4.26-4.13,8.43-4.59,18.29-5.72,27.89-6.08s19.3-.09,28.66-2.2c2.74-.61,5.6-1.53,7.38-3.7a10.59,10.59,0,0,0,2-4.62,21.19,21.19,0,0,0,0-8.58h16.87A4.23,4.23,0,0,1,858.58,501.86Z" transform="translate(-37.2 -86.23)"/><path class="cls-6" d="M661.52,499.77a7,7,0,0,0-4.26,1.13c-1.63,1.29-2,3.59-2.17,5.66-.31,3.07-.62,6.13-.94,9.2a12.2,12.2,0,0,0,.18,4.93,4.15,4.15,0,0,0,3.5,3.08,2.36,2.36,0,0,0,1.76-.62,2.72,2.72,0,0,0,.58-.91c.79-1.86.39-4,.28-6s.27-4.35,2-5.42a6.74,6.74,0,0,1,3.83-.62l8.31.3c2.43.08,5.3-.05,6.64-2.08a4.66,4.66,0,0,0-.72-5.44,10.07,10.07,0,0,0-5.13-2.73C670.91,499.11,666.06,499.66,661.52,499.77Z" transform="translate(-37.2 -86.23)"/><path class="cls-3" d="M882.3,469.75V490.6a4.23,4.23,0,0,1-4.24,4.23H678.5a4.23,4.23,0,0,1-4.24-4.23V469.75a4.24,4.24,0,0,1,4.24-4.24H878.06A4.24,4.24,0,0,1,882.3,469.75Z" transform="translate(-37.2 -86.23)"/><rect class="cls-4" x="653.78" y="408.6" width="174.61" height="2.79"/><path class="cls-5" d="M882.3,469.75V490.6a4.23,4.23,0,0,1-4.24,4.23H791c.66-1.83,2.49-3.17,4.27-4.13,8.43-4.6,18.29-5.72,27.88-6.09s19.3-.09,28.67-2.19c2.73-.61,5.6-1.53,7.38-3.7a10.8,10.8,0,0,0,2-4.63,21,21,0,0,0,0-8.58h16.88A4.24,4.24,0,0,1,882.3,469.75Z" transform="translate(-37.2 -86.23)"/><path class="cls-6" d="M685.23,467.65a7,7,0,0,0-4.25,1.14c-1.63,1.29-2,3.59-2.17,5.65q-.48,4.6-.94,9.21a12.2,12.2,0,0,0,.17,4.93,4.18,4.18,0,0,0,3.5,3.08,2.39,2.39,0,0,0,1.76-.62,3,3,0,0,0,.59-.92c.78-1.86.38-4,.27-6s.27-4.35,2-5.42a6.73,6.73,0,0,1,3.83-.63l8.31.3c2.42.09,5.3,0,6.63-2.07a4.66,4.66,0,0,0-.72-5.44,9.94,9.94,0,0,0-5.12-2.74C694.63,467,689.78,467.55,685.23,467.65Z" transform="translate(-37.2 -86.23)"/><rect class="cls-7" x="634.94" y="347.1" width="208.03" height="29.32" rx="4.24"/><rect class="cls-4" x="651.66" y="376.42" width="174.61" height="2.79"/><path class="cls-5" d="M880.17,437.56v20.86a4.23,4.23,0,0,1-4.23,4.23H788.85c.65-1.84,2.49-3.17,4.27-4.13,8.43-4.6,18.29-5.72,27.88-6.09s19.3-.09,28.67-2.19c2.73-.62,5.6-1.53,7.37-3.7a10.82,10.82,0,0,0,2-4.63,21.19,21.19,0,0,0,0-8.58h16.88A4.23,4.23,0,0,1,880.17,437.56Z" transform="translate(-37.2 -86.23)"/><path class="cls-6" d="M683.11,435.47a7,7,0,0,0-4.25,1.14c-1.63,1.29-2,3.58-2.18,5.65l-.93,9.21a12.2,12.2,0,0,0,.17,4.93,4.19,4.19,0,0,0,3.5,3.08,2.4,2.4,0,0,0,1.76-.62,2.76,2.76,0,0,0,.58-.92c.79-1.86.39-4,.28-6s.27-4.36,2-5.42a6.71,6.71,0,0,1,3.83-.63l8.3.3c2.43.09,5.3,0,6.64-2.07a4.66,4.66,0,0,0-.72-5.44A9.93,9.93,0,0,0,697,436C692.51,434.81,687.65,435.36,683.11,435.47Z" transform="translate(-37.2 -86.23)"/><path class="cls-3" d="M861.17,405.43v20.85a4.23,4.23,0,0,1-4.24,4.23H657.37a4.23,4.23,0,0,1-4.24-4.23V405.43a4.24,4.24,0,0,1,4.24-4.24H856.93A4.24,4.24,0,0,1,861.17,405.43Z" transform="translate(-37.2 -86.23)"/><rect class="cls-4" x="632.65" y="344.29" width="174.61" height="2.79"/><path class="cls-5" d="M861.17,405.43v20.85a4.23,4.23,0,0,1-4.24,4.23H769.84c.66-1.83,2.49-3.16,4.27-4.13,8.43-4.59,18.29-5.72,27.88-6.09s19.3-.08,28.67-2.19c2.73-.61,5.6-1.53,7.38-3.7a10.8,10.8,0,0,0,2-4.63,21,21,0,0,0,0-8.58h16.88A4.24,4.24,0,0,1,861.17,405.43Z" transform="translate(-37.2 -86.23)"/><path class="cls-6" d="M664.1,403.33a7,7,0,0,0-4.25,1.14c-1.63,1.29-2,3.59-2.17,5.66q-.48,4.59-.94,9.2a12.2,12.2,0,0,0,.17,4.93,4.18,4.18,0,0,0,3.5,3.08,2.39,2.39,0,0,0,1.76-.62,2.91,2.91,0,0,0,.59-.91c.78-1.87.38-4,.28-6s.26-4.35,2-5.42a6.64,6.64,0,0,1,3.83-.62l8.31.29c2.42.09,5.3,0,6.63-2.07a4.66,4.66,0,0,0-.72-5.44,9.93,9.93,0,0,0-5.12-2.73C673.5,402.67,668.65,403.23,664.1,403.33Z" transform="translate(-37.2 -86.23)"/><path class="cls-8" d="M772.45,502.35a74.56,74.56,0,1,1,85.92,61.13,74.56,74.56,0,0,1-85.92-61.13" transform="translate(-37.2 -86.23)"/><path class="cls-9" d="M767.21,497.88A74.57,74.57,0,1,1,853.14,559a74.57,74.57,0,0,1-85.93-61.13" transform="translate(-37.2 -86.23)"/><path class="cls-10" d="M770,500a74.57,74.57,0,1,1,85.93,61.13A74.57,74.57,0,0,1,770,500" transform="translate(-37.2 -86.23)"/><path class="cls-7" d="M781.08,498.07A63.29,63.29,0,1,1,854,550,63.29,63.29,0,0,1,781.08,498.07Z" transform="translate(-37.2 -86.23)"/><path class="cls-11" d="M906.48,477a63.07,63.07,0,0,0-24-39.77,63.28,63.28,0,0,1-82.3,95.87A63.28,63.28,0,0,0,906.48,477Z" transform="translate(-37.2 -86.23)"/><path class="cls-10" d="M839.13,519.89c-12.74-1.15-21.93-8.15-21.93-19.95h12.74c.42,5.23,3.34,9.09,9.19,10.13v-23c-10.44-2.61-21.93-5.53-21.93-20.25,0-11.69,9-19.73,21.93-20.88v-8.56h6.78v8.45c12,1.05,20.15,7.63,21.09,19.42H854.27a10.69,10.69,0,0,0-8.36-9.29v22.55c10.44,2.51,21.82,5.33,21.82,20,0,10.12-7.72,19.94-21.82,21.19v8.56h-6.78Zm0-43.12V455.68c-5.74.73-9.82,4.17-9.82,10.54C829.31,472.28,833.49,475,839.13,476.77Zm6.78,12.11v21.19c6.27-1,9.82-5.43,9.82-10.86C855.73,493.26,851.55,490.65,845.91,488.88Z" transform="translate(-37.2 -86.23)"/><path class="cls-12" d="M348.71,491s-2,37.61-19.61,68.92a4.48,4.48,0,0,0,3.89,6.7H509a4.47,4.47,0,0,0,3.9-6.69c-5.28-9.28-13.88-29.55-19.1-68.93Z" transform="translate(-37.2 -86.23)"/><polygon class="cls-13" points="311.51 404.74 458.73 418.63 454.96 391.67 311.51 404.74"/><rect class="cls-12" x="117.97" y="26.21" width="539.88" height="378.52" rx="23.67"/><path class="cls-14" d="M695.05,136.12V448.51H155.17V136.12a23.68,23.68,0,0,1,23.67-23.68H671.38A23.68,23.68,0,0,1,695.05,136.12Z" transform="translate(-37.2 -86.23)"/><rect class="cls-15" x="138.59" y="45.63" width="498.63" height="303.02"/><circle class="cls-13" cx="387.82" cy="382.77" r="12.67"/><rect class="cls-16" x="161.34" y="231.9" width="35.41" height="75.69" rx="1.79"/><rect class="cls-17" x="164.49" y="239.63" width="29.1" height="57.58"/><path class="cls-18" d="M219.19,388.73a2.95,2.95,0,1,1-2.95-3A2.95,2.95,0,0,1,219.19,388.73Z" transform="translate(-37.2 -86.23)"/><path class="cls-18" d="M222,323h-11.6a.67.67,0,0,1-.66-.66h0a.66.66,0,0,1,.66-.66H222a.65.65,0,0,1,.66.66h0A.66.66,0,0,1,222,323Z" transform="translate(-37.2 -86.23)"/><path class="cls-5" d="M695.05,163.19V267.43c-3.94-4.39-6.2-9.42-6.2-14.59v.59c0,13.78-18.37,28.28-43.36,28.46-26.89.21-44.52-13.68-44.52-29v.59c0,13.78-17.84,29.28-42.83,29.28-26.89,0-45-14.5-45-29.87v.59c0,13.78-19.13,29.06-44.12,29.47-24.46.41-43.74-14.69-43.74-30.06,0,15.37-24.49,29.62-43.61,29.45-25-.2-44.27-15.08-44.27-28.86v-.59c0,15.37-25.18,28.2-44.3,28-25-.2-43.57-13.67-43.57-27.45v-.59c0,15.37-25.67,27-44.79,26.83-25-.21-43.09-12.46-43.09-26.24v-.59c0,4.78-2.47,9.17-6.43,13V163.41l21.26-20.29H674Z" transform="translate(-37.2 -86.23)"/><path class="cls-19" d="M425.23,131.67H363q-6.44,24.44-12.82,48.88t-12.83,48.87h87.88V131.67" transform="translate(-37.2 -86.23)"/><path class="cls-20" d="M363,131.67H300.78Q288,156.11,275.16,180.55l-25.65,48.87h87.84q6.38-24.42,12.83-48.87T363,131.67" transform="translate(-37.2 -86.23)"/><path class="cls-19" d="M300.78,131.67H238.62q-19.23,24.44-38.43,48.88t-38.48,48.87h87.8l25.65-48.87q12.84-24.42,25.62-48.88" transform="translate(-37.2 -86.23)"/><path class="cls-20" d="M238.62,131.67H176.43q-25.6,24.44-51.26,48.88t-51.3,48.87h87.84Q181,205,200.19,180.55t38.43-48.88" transform="translate(-37.2 -86.23)"/><path class="cls-21" d="M337.35,229.42h87.88v12c0,15.37-24.49,29.62-43.61,29.46-25-.21-44.27-15.08-44.27-28.86Z" transform="translate(-37.2 -86.23)"/><path class="cls-22" d="M249.48,229.42h87.87v12c0,15.37-25.18,28.2-44.3,28-25-.21-43.57-13.66-43.57-27.44Z" transform="translate(-37.2 -86.23)"/><path class="cls-21" d="M161.6,229.42h87.88v12c0,15.37-25.67,27-44.79,26.83-25-.21-43.09-12.45-43.09-26.23Z" transform="translate(-37.2 -86.23)"/><path class="cls-22" d="M73.73,229.42H161.6v12c0,15.37-25.55,26.79-44.67,26.63-25-.21-43.2-12.25-43.2-26Z" transform="translate(-37.2 -86.23)"/><path class="cls-20" d="M425.23,131.67h62.22q6.44,24.44,12.82,48.88t12.83,48.87H425.23V131.67" transform="translate(-37.2 -86.23)"/><path class="cls-19" d="M487.45,131.67h62.22q12.81,24.44,25.62,48.88l25.65,48.87H513.1q-6.37-24.42-12.83-48.87t-12.82-48.88" transform="translate(-37.2 -86.23)"/><path class="cls-20" d="M549.67,131.67h62.16q19.23,24.44,38.44,48.88l38.47,48.87h-87.8l-25.65-48.87q-12.82-24.42-25.62-48.88" transform="translate(-37.2 -86.23)"/><path class="cls-19" d="M611.83,131.67H674q25.61,24.44,51.26,48.88t51.3,48.87H688.74l-38.47-48.87Q631,156.14,611.83,131.67" transform="translate(-37.2 -86.23)"/><path class="cls-22" d="M513.1,229.42H425.23v12c0,15.37,19.27,30.47,43.74,30.07C494,271,513.1,255.76,513.1,242Z" transform="translate(-37.2 -86.23)"/><path class="cls-21" d="M601,229.42H513.1v12c0,15.37,18.15,29.86,45,29.86,25,0,42.83-15.48,42.83-29.26Z" transform="translate(-37.2 -86.23)"/><path class="cls-22" d="M688.85,229.42H601v12c0,15.37,17.63,29.26,44.52,29.06,25-.19,43.36-14.68,43.36-28.46Z" transform="translate(-37.2 -86.23)"/><path class="cls-21" d="M776.72,229.42H688.85v12c0,15.37,19.93,29.46,44.8,29.46s43.07-15.08,43.07-28.86Z" transform="translate(-37.2 -86.23)"/><path class="cls-23" d="M533.84,251.19h3.63a.76.76,0,0,1,.76.76v6.57a.76.76,0,0,1-.76.76h-3.63a0,0,0,0,1,0,0v-8.08A0,0,0,0,1,533.84,251.19Z"/><rect class="cls-16" x="491.69" y="244.37" width="43.33" height="53.39" rx="2.01"/><rect class="cls-17" x="494.38" y="247.68" width="37.95" height="46.76" rx="1.76"/><path class="cls-24" d="M550.54,358.52h0a1,1,0,0,1-1-1V340.21a1,1,0,0,1,1-1h0a1,1,0,0,1,1,1v17.28A1,1,0,0,1,550.54,358.52Z" transform="translate(-37.2 -86.23)"/><path class="cls-24" d="M549.41,358h0a1.33,1.33,0,0,1,1.32-1.33h8.52a1.34,1.34,0,0,1,1.33,1.33h0a1.33,1.33,0,0,1-1.33,1.32h-8.52A1.32,1.32,0,0,1,549.41,358Z" transform="translate(-37.2 -86.23)"/><path class="cls-23" d="M563.31,330.58H538l.11-.73,1.24-8.25A1.92,1.92,0,0,1,541,320a55.38,55.38,0,0,1,19.43,0,1.93,1.93,0,0,1,1.58,1.6l1.24,8.24Z" transform="translate(-37.2 -86.23)"/><polygon class="cls-25" points="526.11 244.35 500.83 244.35 500.94 243.62 526 243.62 526.11 244.35"/><path class="cls-23" d="M537.6,384.14h25.28l-.11.73-1.24,8.26a1.92,1.92,0,0,1-1.57,1.59,55.38,55.38,0,0,1-19.43,0,1.91,1.91,0,0,1-1.58-1.6l-1.24-8.24Z" transform="translate(-37.2 -86.23)"/><polygon class="cls-25" points="500.4 297.91 525.68 297.91 525.57 298.64 500.51 298.64 500.4 297.91"/><rect class="cls-16" x="363.4" y="242.24" width="19.97" height="7.38" rx="1.78"/><rect class="cls-16" x="294.5" y="245.43" width="95.53" height="58.18" rx="2.68"/><circle class="cls-26" cx="342.44" cy="275.64" r="25.08"/><path class="cls-17" d="M393.22,361.87a13.58,13.58,0,1,1-13.58-13.58A13.58,13.58,0,0,1,393.22,361.87Z" transform="translate(-37.2 -86.23)"/><path class="cls-26" d="M383.58,361.87a3.94,3.94,0,1,1-3.94-3.94A3.94,3.94,0,0,1,383.58,361.87Z" transform="translate(-37.2 -86.23)"/><circle class="cls-26" cx="310.06" cy="250.93" r="3.33"/><rect class="cls-26" x="363.33" y="247.98" width="20.25" height="6.13" rx="1.32"/><rect class="cls-16" x="304.35" y="242.82" width="11.65" height="2.61"/><rect class="cls-16" x="307.24" y="240.36" width="5.5" height="2.61"/><rect class="cls-25" x="304.35" y="244.56" width="11.65" height="0.87"/><rect class="cls-25" x="363.4" y="244.56" width="19.97" height="0.87"/><rect class="cls-27" x="203.22" y="245.38" width="72.33" height="5.61"/><rect class="cls-27" x="203.22" y="257.3" width="72.33" height="5.61"/><rect class="cls-27" x="203.22" y="268.51" width="50.63" height="5.61"/><path class="cls-27" d="M289.51,386.63H247.66a7,7,0,0,1-7-7h0a7,7,0,0,1,7-7h41.85a7,7,0,0,1,7,7h0A7,7,0,0,1,289.51,386.63Z" transform="translate(-37.2 -86.23)"/><rect class="cls-27" x="402.07" y="245.38" width="72.33" height="5.61"/><rect class="cls-27" x="402.07" y="257.3" width="72.33" height="5.61"/><rect class="cls-27" x="402.07" y="268.51" width="50.63" height="5.61"/><path class="cls-27" d="M488.36,386.63H446.51a7,7,0,0,1-7-7h0a7,7,0,0,1,7-7h41.85a7,7,0,0,1,7,7h0A7,7,0,0,1,488.36,386.63Z" transform="translate(-37.2 -86.23)"/><rect class="cls-27" x="549.28" y="245.38" width="72.33" height="5.61"/><rect class="cls-27" x="549.28" y="257.3" width="72.33" height="5.61"/><rect class="cls-27" x="549.28" y="268.51" width="50.63" height="5.61"/><path class="cls-27" d="M635.57,386.63H593.72a7,7,0,0,1-7-7h0a7,7,0,0,1,7-7h41.85a7,7,0,0,1,7,7h0A7,7,0,0,1,635.57,386.63Z" transform="translate(-37.2 -86.23)"/><path class="cls-16" d="M724.93,487.33v68.23a9.55,9.55,0,0,1-9.56,9.56H585.26a9.54,9.54,0,0,1-9.54-9.56V487.33a9.54,9.54,0,0,1,9.54-9.56H715.37A9.55,9.55,0,0,1,724.93,487.33Z" transform="translate(-37.2 -86.23)"/><rect class="cls-28" x="547.81" y="453.22" width="30.29" height="7.48"/><rect class="cls-28" x="581.2" y="453.22" width="30.29" height="7.48"/><rect class="cls-28" x="614.58" y="453.22" width="30.29" height="7.48"/><rect class="cls-28" x="647.97" y="453.22" width="30.29" height="7.48"/><rect class="cls-28" x="547.61" y="464.34" width="59.45" height="4.85"/><rect class="cls-28" x="610.7" y="464.34" width="41.7" height="4.85"/><rect class="cls-28" x="548.22" y="419.85" width="29.72" height="20.02" rx="1.46"/><rect class="cls-16" x="546.5" y="424.65" width="12.44" height="1.18"/><rect class="cls-16" x="546.5" y="433.95" width="12.44" height="1.18"/><rect class="cls-16" x="567.87" y="424.65" width="12.44" height="1.18"/><rect class="cls-16" x="567.87" y="433.95" width="12.44" height="1.18"/><circle class="cls-16" cx="563.18" cy="429.96" r="3.74"/><path class="cls-28" d="M700.77,513.37a13.86,13.86,0,1,1,13.86-13.86A13.87,13.87,0,0,1,700.77,513.37Zm0-25.28a11.42,11.42,0,1,0,11.43,11.42A11.44,11.44,0,0,0,700.77,488.09Z" transform="translate(-37.2 -86.23)"/><path class="cls-25" d="M724.93,487.33v68.23a9.55,9.55,0,0,1-9.56,9.56H634.81a29.93,29.93,0,0,1,4.41-11.59c3.95-5.7,10.56-8.94,17.09-11.25s13.4-4,19.31-7.63c12.43-7.66,18.53-24.25,14-38.14a66.71,66.71,0,0,0-5.95-12.3c-.9-1.56-2.85-4-4-6.44h35.68A9.55,9.55,0,0,1,724.93,487.33Z" transform="translate(-37.2 -86.23)"/><rect class="cls-16" x="667.94" y="231.72" width="107.84" height="52.3" rx="4.4"/><text class="cls-29" transform="translate(705.42 274.1)">%</text><polygon class="cls-16" points="693.34 278.84 673.67 306.74 719.37 277.83 693.34 278.84"/><rect class="cls-16" x="37.2" y="86.23" width="107.84" height="52.3" rx="4.4" transform="translate(145.04 138.53) rotate(180)"/><polygon class="cls-16" points="82.45 47.11 102.11 75.02 56.41 46.1 82.45 47.11"/><path class="cls-30" d="M70.76,111.91a6.61,6.61,0,1,1-6.6-6.61A6.59,6.59,0,0,1,70.76,111.91Z" transform="translate(-37.2 -86.23)"/><path class="cls-30" d="M98.4,111.91a6.61,6.61,0,1,1-6.61-6.61A6.6,6.6,0,0,1,98.4,111.91Z" transform="translate(-37.2 -86.23)"/><path class="cls-30" d="M126,111.91a6.61,6.61,0,1,1-6.6-6.61A6.59,6.59,0,0,1,126,111.91Z" transform="translate(-37.2 -86.23)"/><polygon class="cls-31" points="223.44 492.67 221.03 501.04 219.98 504.68 212 505.22 213.14 499.97 214.6 493.25 223.44 492.67"/><path class="cls-32" d="M271,601.46s-15.54-.71-20.74-1.23-1-9.62-1-9.62l1.55,0,6.51.21c.78,1.57,5.08,5.38,9.69,6.25,3.23.61,4.19,1.78,4.36,2.75A2.36,2.36,0,0,1,271,601.46Z" transform="translate(-37.2 -86.23)"/><polygon class="cls-31" points="258.91 490.41 258.78 493.37 258.5 499.32 258.34 502.93 258.34 502.98 250.4 503.92 250.42 503.08 250.5 499.29 250.67 491.28 250.97 491.25 258.91 490.41"/><path class="cls-32" d="M309.86,599.05s-15.56.07-20.77-.18-1.53-9.56-1.53-9.56l1.67,0,6.4-.12c.86,1.52,5.34,5.1,10,5.74,2.22.31,3.39.92,4,1.57A2.23,2.23,0,0,1,309.86,599.05Z" transform="translate(-37.2 -86.23)"/><path class="cls-11" d="M251.79,579.48l8.85-.58-2.41,8.37c-1.08-.12-2.15-.26-3.22-.42a28.34,28.34,0,0,1-4.67-.65Z" transform="translate(-37.2 -86.23)"/><path class="cls-11" d="M296,579.6l-.28,5.94c-2.66.06-5.33-.1-8,0l.17-8,.3,0a43.75,43.75,0,0,1,4.91,1A16.36,16.36,0,0,1,296,579.6Z" transform="translate(-37.2 -86.23)"/><path class="cls-33" d="M296.59,584.14l-9.63.31-4.47-42-4.16-38.85c-.34,16-19.07,82.73-19.07,82.73l-9.37-1.13,4.85-49,1-51.51,0-1.22,44-2.42c.07.7.11,1.67.14,2.88C300.39,503.48,296.59,584.14,296.59,584.14Z" transform="translate(-37.2 -86.23)"/><path class="cls-11" d="M300,484a41.12,41.12,0,0,1-7,.62c-4.6,0-9.18-.43-13.77-.34-7,.13-15,2.56-21.89,1a7.7,7.7,0,0,1-1.55-.54l0-1.22,44-2.42C299.9,481.79,299.94,482.76,300,484Z" transform="translate(-37.2 -86.23)"/><path class="cls-31" d="M275.65,403.27s2.68-2.31,11.93-3.24,22-2.25,22-2.25,19.31-10.1,27.5-19.93l5.24,4.88s-16,22.78-27.81,25.67S279.41,420.93,275.65,403.27Z" transform="translate(-37.2 -86.23)"/><path class="cls-31" d="M353,373.71s0-.07,0-.11a1.08,1.08,0,0,0-.35-.8.94.94,0,0,0-1-.35,1.59,1.59,0,0,0-.07-.2,1.14,1.14,0,0,0,0-1.71,1,1,0,0,0-1.12-.39,1.54,1.54,0,0,0-.17-.19,1.11,1.11,0,0,0-.26-1.4c-.7-.76-1.34-.45-2.12.23l-.11,0c-.31,0,.77-.92,2.61-3.08s4.29-4.56,3.12-5.62c-.9-.83-2.88,1.21-4.9,3.47-1.43,1.59-3.83,4.27-4.89,5.3-.84.82-1.55,2-2,2.16a5.56,5.56,0,0,0-.44-.6c-.37-.39-.16-1.83-.33-2.86-.24-1.48-.85-2.64-1.62-3s-1.54-.44-1.16,1.79h0c0,.11,0,.22.05.33l0,.27h0a15.46,15.46,0,0,1-.78,6.51c-.68,1.65-1.26,2.64-.31,4.32.32.55-9.57,10.29-11.07,11.66s4.51,6.05,5.63,4.83,10.35-12,11.42-11.95,1.9-.19,4.29-1.83C348.53,379.69,353.24,375.58,353,373.71Z" transform="translate(-37.2 -86.23)"/><path class="cls-34" d="M260.77,349.54s-19.77,4.28-8.24,49.6c1.07,4.13,31,.08,38.37-2.61C290.9,396.53,297.94,335.36,260.77,349.54Z" transform="translate(-37.2 -86.23)"/><path class="cls-31" d="M277.41,389.31l-.54,19.48L262.09,412s2.72-21.06-.71-30.33Z" transform="translate(-37.2 -86.23)"/><path class="cls-11" d="M277.29,393.6s-11.1-2.15-13.86-6.74c0,0,2.73,8.78,13.82,8.22Z" transform="translate(-37.2 -86.23)"/><path class="cls-31" d="M275.07,354.11s8.88,10.54,10.37,23.17-4.22,18-13.46,16.1-14.85-17.21-14.2-25.48S265.07,352.75,275.07,354.11Z" transform="translate(-37.2 -86.23)"/><path class="cls-31" d="M255,378.56a3.87,3.87,0,1,0,2.52-4.86A3.88,3.88,0,0,0,255,378.56Z" transform="translate(-37.2 -86.23)"/><path class="cls-34" d="M263.06,356.66c1.25.4,15.15,10.9,24.72,10.49,0,0-3.61-17.65-17.14-17.08S263.06,356.66,263.06,356.66Z" transform="translate(-37.2 -86.23)"/><path class="cls-34" d="M267.16,353.55s-3,19.4-12.83,20.69S256.88,352.43,267.16,353.55Z" transform="translate(-37.2 -86.23)"/><path class="cls-7" d="M269.31,401s-15.95,3.47-15.6,12.48,2.08,70.07,2.08,70.07l44-2.43s-4.51-43-6.94-46.48c0,0,5.9-12.49,0-22.2S284.92,399.23,269.31,401Z" transform="translate(-37.2 -86.23)"/><path class="cls-31" d="M255.38,407.42c4.12-3,9.84.6,9.16,5.65-.18,1.35-.46,2.91-.87,4.68-2.09,9.06-4.93,21.58-4.93,21.58s3.15,22,9.84,32.95l-5.4,3.38s-17.12-23-16.08-35.07C247.92,431.09,247.08,413.5,255.38,407.42Z" transform="translate(-37.2 -86.23)"/><path class="cls-31" d="M268.34,491.64h0l.09.08h0l.09.06h0l.1,0h0l.1,0H269l.07,0,.07,0,.16-.06.08,0,.06-.05h0a.42.42,0,0,0,.09-.14h0c.33-.81-.89-3.08-1.33-4.44a1.83,1.83,0,0,0-.08-.25v0c0-.08-.05-.15-.07-.22v0l-.06-.19v0l-.05-.17v0l0-.15v0a.68.68,0,0,1,0-.14h0a.43.43,0,0,0,0-.12h0a.41.41,0,0,0,0-.11h0v-.09h0a.44.44,0,0,1,0-.19h0l0,0H268a31.58,31.58,0,0,1,2.45,4.51,10.76,10.76,0,0,0,1.65,2.95h0l.1.08h0l.09.07h0l.21.09h.33l.11,0,.1-.06,0,0a.23.23,0,0,0,.07-.07h0a.78.78,0,0,0,.12-.22h0a.19.19,0,0,0,0-.08h0c.17-.75-.46-2.16-1-3.53v0l-.06-.14,0-.05-.05-.12,0-.06a.87.87,0,0,1-.07-.17c-.79-1.91-2-3.52-1.55-3.76s4.16,6.4,4.47,6.88a5.66,5.66,0,0,0,1.25,1.55h0l.09.06h0l.08,0h0l.07,0h0l.09,0h.3l.09,0,.08-.05h0l.05-.05,0,0,0-.05h0a.35.35,0,0,1,.05-.08h0l0-.07v0a.24.24,0,0,0,0-.08h0l0-.2h0a4.9,4.9,0,0,0-.61-2c-.36-.77-1.47-2.87-2.5-4.57s-1.38-2.23-1.13-2.45h0c.42.06,3.17,3.4,4.16,4.67a5.19,5.19,0,0,0,1.84,1.65h0a1.24,1.24,0,0,0,.31.1h.31l.07,0h0l0,0h0l0,0,0,0,0,0,0,0,0,0s0,0,0,0l0,0,.05-.07,0-.08v0s0,0,0-.05,0,0,0,0,0-.05,0-.07h0c.14-1-1.77-3.08-2.82-4.38a40.4,40.4,0,0,1-3.72-5c-.57-1.14-1.31-2.07-.66-2.27l.32-.14a4.61,4.61,0,0,1,2.49.39,3.66,3.66,0,0,0,2.83-.33c.36-.2.58-.47.46-.73h0s0,0,0-.05h0s0,0,0,0h0s0,0,0,0h0l0,0h0l-.05,0h0l-.06,0h0l-.06,0h0l-.08,0h0l-.08,0h0l-.1,0h0l-.11,0h0l-.13,0h0l-.14,0h0l-.15,0h0l-.21,0a13.3,13.3,0,0,1-5.67-2.5c-1.18-1-1.84-1.76-3.48-1.43-.54.11-5.89-10.67-6.6-12.28s-6.92,2.38-6.22,3.63,7.83,11.49,7.46,12.35-.35,1.62.35,4c.35,1.21,1.18,3.46,1.89,5.34,0,0,1.34,3.54,2,4.84A6.36,6.36,0,0,0,268.34,491.64Z" transform="translate(-37.2 -86.23)"/><path class="cls-31" d="M261.79,403.61s7.18,9.32,15.33,7.59,4.77-8.07,2.38-10.1S266.54,400,261.79,403.61Z" transform="translate(-37.2 -86.23)"/><path class="cls-11" d="M271,601.46s-15.54-.71-20.74-1.23-1-9.62-1-9.62l1.55,0c.26.75-.26,1.91-.42,2.59-.4,1.72-.72,3.75.49,5,1,1,2.52,1.13,3.92,1.17,3.59.09,7.19.07,10.78,0a17.13,17.13,0,0,1,5.72.43l.07,0A2.36,2.36,0,0,1,271,601.46Z" transform="translate(-37.2 -86.23)"/><path class="cls-11" d="M309.86,599.05s-15.56.07-20.77-.18-1.53-9.56-1.53-9.56l1.67,0a2.73,2.73,0,0,1,.61,1.18,9.4,9.4,0,0,1,0,2.95,4.23,4.23,0,0,0,.6,2.84c.83,1.11,2.4,1.3,3.79,1.4a36.53,36.53,0,0,0,8,0c2.43-.39,4.89-1.27,7.3-1.15A2.23,2.23,0,0,1,309.86,599.05Z" transform="translate(-37.2 -86.23)"/><path class="cls-26" d="M497.22,492.81a1.33,1.33,0,0,1-1.33-1.33V467.13a6.67,6.67,0,0,0-6.67-6.67H477.43a6.68,6.68,0,0,0-6.68,6.67v24.35a1.32,1.32,0,1,1-2.64,0V467.13a9.33,9.33,0,0,1,9.32-9.32h11.79a9.33,9.33,0,0,1,9.32,9.32v24.35A1.32,1.32,0,0,1,497.22,492.81Z" transform="translate(-37.2 -86.23)"/><polygon class="cls-32" points="406.6 397.77 402.19 484.3 461.41 484.09 464.56 397.56 406.6 397.77"/><polygon class="cls-35" points="481.73 483.88 461.48 484.04 464.56 397.56 479.26 397.77 481.73 483.88"/><polygon class="cls-36" points="461.48 484.04 471.58 477.4 481.73 483.88 461.48 484.04"/><path class="cls-37" d="M462.51,489a2.37,2.37,0,1,1-2.36-2.37A2.36,2.36,0,0,1,462.51,489Z" transform="translate(-37.2 -86.23)"/><path class="cls-37" d="M490.13,489a2.37,2.37,0,1,1-2.36-2.37A2.36,2.36,0,0,1,490.13,489Z" transform="translate(-37.2 -86.23)"/><path class="cls-35" d="M488.05,490.17a1.34,1.34,0,0,1-1.33-1.33V464.49a6.67,6.67,0,0,0-6.67-6.67H468.26a6.68,6.68,0,0,0-6.68,6.67v24.35a1.32,1.32,0,1,1-2.64,0V464.49a9.33,9.33,0,0,1,9.32-9.32h11.79a9.33,9.33,0,0,1,9.32,9.32v24.35A1.33,1.33,0,0,1,488.05,490.17Z" transform="translate(-37.2 -86.23)"/><path class="cls-38" d="M434.38,515.91a.94.94,0,0,1-.95-.95V497.39a4.82,4.82,0,0,0-4.82-4.82H420.1a4.82,4.82,0,0,0-4.81,4.82V515a1,1,0,0,1-1.91,0V497.39a6.73,6.73,0,0,1,6.72-6.73h8.51a6.74,6.74,0,0,1,6.73,6.73V515A1,1,0,0,1,434.38,515.91Z" transform="translate(-37.2 -86.23)"/><polygon class="cls-33" points="358.64 423.33 355.46 485.76 398.19 485.61 400.46 423.18 358.64 423.33"/><polygon class="cls-39" points="412.84 485.45 398.24 485.57 400.46 423.18 411.07 423.33 412.84 485.45"/><polygon class="cls-36" points="398.24 485.57 405.53 480.78 412.84 485.45 398.24 485.57"/><path class="cls-38" d="M409.34,513.18a1.71,1.71,0,1,1-1.7-1.7A1.7,1.7,0,0,1,409.34,513.18Z" transform="translate(-37.2 -86.23)"/><path class="cls-38" d="M429.27,513.18a1.71,1.71,0,1,1-1.71-1.7A1.7,1.7,0,0,1,429.27,513.18Z" transform="translate(-37.2 -86.23)"/><path class="cls-39" d="M427.77,514a1,1,0,0,1-1-1V495.48a4.82,4.82,0,0,0-4.81-4.81h-8.51a4.82,4.82,0,0,0-4.82,4.81v17.57a1,1,0,1,1-1.91,0V495.48a6.73,6.73,0,0,1,6.73-6.72H422a6.72,6.72,0,0,1,6.72,6.72v17.57A1,1,0,0,1,427.77,514Z" transform="translate(-37.2 -86.23)"/></g></g></svg>