<?xml version="1.0"?>
<svg xmlns="http://www.w3.org/2000/svg" height="512" viewBox="0 0 64 64" width="512" class=""><g><path d="m59 35h-7v-7.54a5.983 5.983 0 0 0 2-4.46.992.992 0 0 0 -.022-.21l-2.978-13.897v-5.893a1 1 0 0 0 -1-1h-44a1 1 0 0 0 -1 1v5.893l-2.978 13.897a.992.992 0 0 0 -.022.21 5.983 5.983 0 0 0 2 4.46v32.54h-2v2h52v-2h-2v-3h7a3 3 0 0 0 3-3v-16a3 3 0 0 0 -3-3zm1 3v1h-32v-1a1 1 0 0 1 1-1h30a1 1 0 0 1 1 1zm-32 3h32v2h-32zm-23.863-17h7.721a3.984 3.984 0 0 1 -7.721 0zm7.863-14v12h-7.763l2.572-12zm2 0h8v12h-8zm10 0h8v12h-8zm10 0h8v12h-8zm10 0h5.191l2.572 12h-7.763zm-22.142 14a3.981 3.981 0 0 1 -7.716 0zm10 0a3.981 3.981 0 0 1 -7.716 0zm10 0a3.981 3.981 0 0 1 -7.716 0zm10.005 0a3.984 3.984 0 0 1 -7.721 0zm-2.863-20v4h-42v-4zm-41 25a6 6 0 0 0 5-2.69 5.992 5.992 0 0 0 10 0 5.992 5.992 0 0 0 10 0 5.992 5.992 0 0 0 10 0 5.967 5.967 0 0 0 7 2.34v1.35h-44v-1.35a5.976 5.976 0 0 0 2 .35zm3 31v-17h10v17zm39 0h-27v-18a1 1 0 0 0 -1-1h-12a1 1 0 0 0 -1 1v18h-3v-28h44v3h-21a3 3 0 0 0 -3 3v16a3 3 0 0 0 3 3h21zm9-5h-30a1 1 0 0 1 -1-1v-9h32v9a1 1 0 0 1 -1 1z" data-original="#000000" class="active-path" style="fill:#FFFFFF" data-old_color="#000000"/><path d="m55 47a2.978 2.978 0 0 0 -1.5.408 3 3 0 1 0 0 5.184 3 3 0 1 0 1.5-5.592zm0 4a.994.994 0 0 1 -.748-.348 1 1 0 0 0 -1.5 0 1 1 0 1 1 0-1.3 1.03 1.03 0 0 0 1.5 0 1 1 0 1 1 .748 1.648z" data-original="#000000" class="active-path" style="fill:#FFFFFF" data-old_color="#000000"/><path d="m30 47h4v2h-4z" data-original="#000000" class="active-path" style="fill:#FFFFFF" data-old_color="#000000"/><path d="m30 51h7v2h-7z" data-original="#000000" class="active-path" style="fill:#FFFFFF" data-old_color="#000000"/><path d="m12 49h2v3h-2z" data-original="#000000" class="active-path" style="fill:#FFFFFF" data-old_color="#000000"/></g> </svg>
