<?xml version="1.0"?>
<svg xmlns="http://www.w3.org/2000/svg" height="512" viewBox="-40 0 512 512" width="512"><g><path d="m200 116.046875c-2.121094 0-4.160156-.839844-5.65625-2.34375l-46.855469-46.855469c-7.398437-7.375-11.488281-17.214844-11.488281-27.6875s4.089844-20.320312 11.496094-27.695312c7.335937-7.386719 17.167968-11.464844 27.664062-11.464844 9.160156 0 17.847656 3.113281 24.839844 8.839844 7-5.726563 15.6875-8.839844 24.847656-8.839844 10.496094 0 20.328125 4.078125 27.695313 11.488281 7.386719 7.359375 11.464843 17.191407 11.464843 27.671875 0 10.480469-4.078124 20.3125-11.488281 27.695313l-2.824219 2.777343-44.046874 44.078126c-1.488282 1.488281-3.519532 2.335937-5.648438 2.335937zm-24.839844-100.046875c-6.199218 0-12.007812 2.398438-16.34375 6.769531-4.402344 4.382813-6.816406 10.199219-6.816406 16.390625s2.414062 12 6.792969 16.359375l41.207031 41.207031 41.265625-41.246093c4.328125-4.320313 6.742187-10.136719 6.742187-16.328125s-2.414062-12.007813-6.785156-16.367188c-8.742187-8.777344-24.039062-8.761718-32.832031 0l-2.757813 2.734375c-3.128906 3.105469-8.160156 3.105469-11.28125 0l-2.742187-2.71875c-4.402344-4.394531-10.242187-6.800781-16.449219-6.800781zm0 0" data-original="#000000" class="active-path" style="fill:#FE9A06" data-old_color="#000000"/><path d="m424 104c-4.425781 0-8-3.585938-8-8 0-4.40625-3.585938-8-8-8-4.425781 0-8-3.585938-8-8s3.574219-8 8-8c13.230469 0 24 10.769531 24 24 0 4.414062-3.574219 8-8 8zm0 0" data-original="#000000" class="active-path" style="fill:#FE9A06" data-old_color="#000000"/><path d="m408 160c-4.425781 0-8-3.585938-8-8s3.574219-8 8-8c4.414062 0 8-3.59375 8-8 0-4.414062 3.574219-8 8-8s8 3.585938 8 8c0 13.230469-10.769531 24-24 24zm0 0" data-original="#000000" class="active-path" style="fill:#FE9A06" data-old_color="#000000"/><path d="m424 144c-4.425781 0-8-3.585938-8-8v-40c0-4.414062 3.574219-8 8-8s8 3.585938 8 8v40c0 4.414062-3.574219 8-8 8zm0 0" data-original="#000000" class="active-path" style="fill:#FE9A06" data-old_color="#000000"/><path d="m408 88h-16c-4.425781 0-8-3.585938-8-8s3.574219-8 8-8h16c4.425781 0 8 3.585938 8 8s-3.574219 8-8 8zm0 0" data-original="#000000" class="active-path" style="fill:#FE9A06" data-old_color="#000000"/><path d="m408 160h-48c-4.425781 0-8-3.585938-8-8s3.574219-8 8-8h48c4.425781 0 8 3.585938 8 8s-3.574219 8-8 8zm0 0" data-original="#000000" class="active-path" style="fill:#FE9A06" data-old_color="#000000"/><path d="m392 88c-4.425781 0-8-3.585938-8-8v-28c0-4.414062 3.574219-8 8-8s8 3.585938 8 8v28c0 4.414062-3.574219 8-8 8zm0 0" data-original="#000000" class="active-path" style="fill:#FE9A06" data-old_color="#000000"/><path d="m360.007812 88c-.734374 0-1.472656-.105469-2.199218-.3125-4.25-1.214844-6.710938-5.640625-5.503906-9.886719l8-28c1.214843-4.257812 5.6875-6.695312 9.886718-5.496093 4.25 1.214843 6.710938 5.640624 5.503906 9.886718l-8 28c-1.007812 3.519532-4.207031 5.808594-7.6875 5.808594zm0 0" data-original="#000000" class="active-path" style="fill:#FE9A06" data-old_color="#000000"/><path d="m368 60c-.726562 0-1.472656-.105469-2.199219-.3125-4.25-1.214844-6.703125-5.648438-5.488281-9.894531 1.390625-4.863281 5.101562-17.792969 19.6875-17.792969 11.03125 0 20 8.976562 20 20 0 4.414062-3.574219 8-8 8s-8-3.585938-8-8c0-2.207031-1.800781-4-4-4-1.472656 0-2.527344 0-4.3125 6.207031-1.007812 3.503907-4.199219 5.792969-7.6875 5.792969zm0 0" data-original="#000000" class="active-path" style="fill:#FE9A06" data-old_color="#000000"/><path d="m360 160c-2.046875 0-4.097656-.785156-5.65625-2.34375l-8-8c-3.128906-3.128906-3.128906-8.183594 0-11.3125s8.183594-3.128906 11.3125 0l8 8c3.128906 3.128906 3.128906 8.183594 0 11.3125-1.558594 1.558594-3.609375 2.34375-5.65625 2.34375zm0 0" data-original="#000000" class="active-path" style="fill:#FE9A06" data-old_color="#000000"/><path d="m360 88h-24c-4.425781 0-8-3.585938-8-8s3.574219-8 8-8h24c4.425781 0 8 3.585938 8 8s-3.574219 8-8 8zm0 0" data-original="#000000" class="active-path" style="fill:#FE9A06" data-old_color="#000000"/><path d="m352 152h-16c-4.425781 0-8-3.585938-8-8s3.574219-8 8-8h16c4.425781 0 8 3.585938 8 8s-3.574219 8-8 8zm0 0" data-original="#000000" class="active-path" style="fill:#FE9A06" data-old_color="#000000"/><path d="m336 160h-32c-4.425781 0-8-3.585938-8-8v-80c0-4.414062 3.574219-8 8-8h32c4.425781 0 8 3.585938 8 8v80c0 4.414062-3.574219 8-8 8zm-24-16h16v-64h-16zm0 0" data-original="#000000" class="active-path" style="fill:#FE9A06" data-old_color="#000000"/><path d="m56 168c-30.871094 0-56-25.121094-56-56s25.128906-56 56-56 56 25.121094 56 56-25.128906 56-56 56zm0-96c-22.054688 0-40 17.945312-40 40s17.945312 40 40 40 40-17.945312 40-40-17.945312-40-40-40zm0 0" data-original="#000000" class="active-path" style="fill:#FE9A06" data-old_color="#000000"/><path d="m56 136c-4.425781 0-8-3.585938-8-8v-32c0-4.414062 3.574219-8 8-8s8 3.585938 8 8v32c0 4.414062-3.574219 8-8 8zm0 0" data-original="#000000" class="active-path" style="fill:#FE9A06" data-old_color="#000000"/><path d="m72 120h-32c-4.425781 0-8-3.585938-8-8s3.574219-8 8-8h32c4.425781 0 8 3.585938 8 8s-3.574219 8-8 8zm0 0" data-original="#000000" class="active-path" style="fill:#FE9A06" data-old_color="#000000"/><path d="m312 512h-272c-4.425781 0-8-3.574219-8-8v-288c0-4.414062 3.574219-8 8-8h272c4.425781 0 8 3.585938 8 8v288c0 4.425781-3.574219 8-8 8zm-264-16h256v-272h-256zm0 0" data-original="#000000" class="active-path" style="fill:#FE9A06" data-old_color="#000000"/><path d="m360 512h-48c-4.425781 0-8-3.574219-8-8v-288c0-4.414062 3.574219-8 8-8h48c4.425781 0 8 3.585938 8 8v288c0 4.425781-3.574219 8-8 8zm-40-16h32v-272h-32zm0 0" data-original="#000000" class="active-path" style="fill:#FE9A06" data-old_color="#000000"/><path d="m216 200c-4.425781 0-8-3.585938-8-8 0-17.648438-14.351562-32-32-32s-32 14.351562-32 32c0 4.414062-3.574219 8-8 8s-8-3.585938-8-8c0-26.472656 21.527344-48 48-48s48 21.527344 48 48c0 4.414062-3.574219 8-8 8zm0 0" data-original="#000000" class="active-path" style="fill:#FE9A06" data-old_color="#000000"/><path d="m136 256c-4.425781 0-8-3.585938-8-8v-56c0-4.414062 3.574219-8 8-8s8 3.585938 8 8v56c0 4.414062-3.574219 8-8 8zm0 0" data-original="#000000" class="active-path" style="fill:#FE9A06" data-old_color="#000000"/><path d="m216 256c-4.425781 0-8-3.585938-8-8v-56c0-4.414062 3.574219-8 8-8s8 3.585938 8 8v56c0 4.414062-3.574219 8-8 8zm0 0" data-original="#000000" class="active-path" style="fill:#FE9A06" data-old_color="#000000"/><path d="m264 200c-4.425781 0-8-3.585938-8-8 0-17.648438-14.351562-32-32-32s-32 14.351562-32 32c0 4.414062-3.574219 8-8 8s-8-3.585938-8-8c0-26.472656 21.527344-48 48-48s48 21.527344 48 48c0 4.414062-3.574219 8-8 8zm0 0" data-original="#000000" class="active-path" style="fill:#FE9A06" data-old_color="#000000"/><path d="m184 224c-4.425781 0-8-3.585938-8-8v-24c0-4.414062 3.574219-8 8-8s8 3.585938 8 8v24c0 4.414062-3.574219 8-8 8zm0 0" data-original="#000000" class="active-path" style="fill:#FE9A06" data-old_color="#000000"/><path d="m264 224c-4.425781 0-8-3.585938-8-8v-24c0-4.414062 3.574219-8 8-8s8 3.585938 8 8v24c0 4.414062-3.574219 8-8 8zm0 0" data-original="#000000" class="active-path" style="fill:#FE9A06" data-old_color="#000000"/></g> </svg>
