<svg id="Layer_1" data-name="Layer 1" xmlns="http://www.w3.org/2000/svg" viewBox="0 0 138 123.45"><path d="M72,102C33.3,102,3,88.8,3,72S33.3,42,72,42s69,13.2,69,30S110.7,102,72,102Zm0-54C34.2,48,9,60.3,9,72S34.2,96,72,96s63-12.3,63-24S109.8,48,72,48Z" transform="translate(-3 -10.35)"/><path d="M45.3,133.8a13.85,13.85,0,0,1-7.8-2.1C22.8,123.3,26.7,90.6,45.9,57h0c9-15.6,20.1-28.8,30.9-37.2,11.7-9,22.2-11.7,29.4-7.5,7.5,4.2,10.2,14.7,8.4,29.4-1.8,13.8-7.8,30-16.8,45.6s-20.1,28.8-30.9,37.2C59.1,130.5,51.6,133.8,45.3,133.8ZM98.7,16.2c-4.8,0-11.1,2.7-18,8.1C70.5,32.4,60,45,51.3,60h0c-18.9,32.7-20.7,60.9-10.8,66.6,5.1,3,13.5.3,22.8-6.9C73.5,111.6,84,99,92.7,84s14.4-30.3,16.2-43.2c1.5-12-.3-20.4-5.4-23.4A12.58,12.58,0,0,0,98.7,16.2Z" transform="translate(-3 -10.35)"/><path d="M99,133.8c-15,0-36.6-18.3-52.8-46.8C26.7,53.4,22.8,20.7,37.5,12.3h0C52.2,3.9,78.6,23.4,98.1,57c9,15.6,15,31.8,16.8,45.6,2.1,14.7-.9,24.9-8.4,29.4A16.26,16.26,0,0,1,99,133.8ZM40.5,17.4C30.6,23.1,32.4,51.3,51.3,84s42.3,48.3,52.2,42.6c5.1-3,6.9-11.4,5.4-23.4C107.1,90.3,101.4,75,92.7,60,73.8,27.3,50.4,11.7,40.5,17.4Z" transform="translate(-3 -10.35)"/><circle cx="69" cy="61.65" r="12"/></svg>