<?xml version="1.0"?>
<svg xmlns="http://www.w3.org/2000/svg" id="Capa_1" enable-background="new 0 0 511.681 511.681" height="512" viewBox="0 0 511.681 511.681" width="512" class=""><g><path d="m442.928 230.174v-50.742c8.855-1.839 15.53-9.7 15.53-19.092v-42.604c0-10.752-8.748-19.5-19.5-19.5h-42.888c.4-4.324.799-9.168.98-11.364l.088-1.065c1.346-15.535-2.045-32.281-9.546-47.155-8.032-15.923-20.192-28.138-34.242-34.393-7.172-3.193-15.229-4.601-23.95-4.189-13.61.646-28.232 5.828-43.46 15.401-11.268 7.084-22.42 15.925-34.092 27.029-.067.063-.133.129-.198.195l-2.207 2.262c-5.455-1.648-11.232-2.543-17.217-2.543s-11.763.896-17.218 2.543l-2.207-2.262c-.065-.066-.131-.132-.198-.195-11.672-11.104-22.823-19.945-34.091-27.029-15.228-9.573-29.85-14.755-43.461-15.401-8.718-.411-16.777.996-23.949 4.189-14.05 6.255-26.211 18.47-34.242 34.393-7.502 14.874-10.892 31.62-9.546 47.154l.089 1.069c.181 2.197.579 7.039.979 11.361h-42.889c-10.752 0-19.5 8.748-19.5 19.5v42.604c0 9.392 6.675 17.253 15.531 19.092v58.907c0 4.143 3.358 7.5 7.5 7.5s7.5-3.357 7.5-7.5v-58.499h140.85v316.841h-136.35c-2.481 0-4.5-2.019-4.5-4.5v-219.342c0-4.143-3.358-7.5-7.5-7.5s-7.5 3.357-7.5 7.5v219.342c0 10.752 8.748 19.5 19.5 19.5h382.404c10.752 0 19.5-8.748 19.5-19.5v-44.952l23.72 9.069c1.57.601 3.213.896 4.849.896 2.712 0 5.401-.813 7.698-2.394 3.682-2.534 5.88-6.715 5.88-11.185v-94.213c12.726-12.688 20.613-30.226 20.613-49.573 0-36.158-27.549-66.003-62.76-69.655zm-3.969-116.937c2.481 0 4.5 2.019 4.5 4.5v42.604c0 2.481-2.019 4.5-4.5 4.5h-136.293v-51.604zm-145.034-85.067c13.014-8.182 25.189-12.596 36.188-13.118 6.362-.297 12.124.679 17.138 2.91 19.268 8.578 37.607 35.816 34.945 66.551l-.094 1.13c-.482 5.864-.837 9.865-1.096 12.594h-89.258c-1.251-19.605-12.01-36.656-27.709-46.595 10.262-9.588 20.062-17.297 29.886-23.472zm-61.699 29.244c23.332 0 42.542 17.987 44.495 40.822h-88.991c1.953-22.834 21.164-40.822 44.496-40.822zm-70.44 107.426h-136.293c-2.481 0-4.5-2.019-4.5-4.5v-42.604c0-2.481 2.019-4.5 4.5-4.5h136.293zm-78.339-66.603c-.259-2.729-.613-6.729-1.096-12.592l-.094-1.133c-2.663-30.732 15.677-57.972 34.945-66.55 5.013-2.232 10.774-3.21 17.137-2.91 10.999.522 23.174 4.937 36.188 13.118 9.824 6.176 19.623 13.884 29.885 23.472-15.699 9.939-26.458 26.99-27.709 46.595zm93.339 66.603v-51.604h110.879v51.604zm95.292 331.841h-79.704v-316.841h79.704zm197.997-55.131-29.576-11.309c-3.127-1.195-6.569-1.195-9.697 0l-29.575 11.309v-21.044c0-4.143-3.358-7.5-7.5-7.5s-7.5 3.357-7.5 7.5v23.11c0 4.47 2.198 8.65 5.88 11.185s8.372 3.091 12.547 1.498l23.274-8.899v44.781c0 2.481-2.019 4.5-4.5 4.5h-136.35v-316.841h140.851v50.39c-34.996 3.858-62.313 33.594-62.313 69.601 0 19.347 7.887 36.885 20.612 49.572v36.102c0 4.143 3.358 7.5 7.5 7.5s7.5-3.357 7.5-7.5v-24.719c10.174 5.768 21.916 9.08 34.424 9.08s24.25-3.312 34.424-9.08v80.764zm-34.424-86.682c-30.347 0-55.036-24.689-55.036-55.036s24.689-55.036 55.036-55.036 55.037 24.689 55.037 55.036-24.69 55.036-55.037 55.036z" data-original="#000000" class="active-path" style="fill:#FFFFFF" data-old_color="#000000"/><path d="m477.2 285.907c-1.625-5.001-5.867-8.577-11.072-9.334l-12.561-1.825-5.617-11.382c-2.328-4.716-7.04-7.645-12.298-7.646-5.259 0-9.972 2.93-12.3 7.646l-5.617 11.382-12.562 1.825c-5.204.757-9.446 4.333-11.071 9.334-1.625 5.002-.295 10.39 3.471 14.062l9.088 8.858-2.146 12.511c-.889 5.183 1.202 10.322 5.456 13.414s9.789 3.491 14.445 1.045l11.234-5.906 11.236 5.906c2.024 1.064 4.214 1.59 6.394 1.59 2.833 0 5.646-.888 8.05-2.635 4.254-3.092 6.345-8.231 5.456-13.414l-2.146-12.511 9.09-8.859c3.766-3.672 5.095-9.059 3.47-14.061zm-24.722 13.829c-2.476 2.413-3.605 5.888-3.021 9.296l2.105 12.276-11.023-5.795c-3.061-1.61-6.715-1.611-9.775-.001l-11.024 5.796 2.105-12.276c.584-3.408-.545-6.883-3.021-9.296l-8.919-8.693 12.323-1.79c3.421-.496 6.378-2.643 7.911-5.745l5.512-11.169 5.512 11.168c1.531 3.103 4.488 5.25 7.908 5.745l12.326 1.791z" data-original="#000000" class="active-path" style="fill:#FFFFFF" data-old_color="#000000"/></g> </svg>
