<?xml version="1.0"?>
<svg xmlns="http://www.w3.org/2000/svg" id="outline" height="512" viewBox="0 0 512 512" width="512"><g><path d="m472 56h-432a24.028 24.028 0 0 0 -24 24v352a24.028 24.028 0 0 0 24 24h432a24.028 24.028 0 0 0 24-24v-352a24.028 24.028 0 0 0 -24-24zm8 376a8.009 8.009 0 0 1 -8 8h-432a8.009 8.009 0 0 1 -8-8v-352a8.009 8.009 0 0 1 8-8h432a8.009 8.009 0 0 1 8 8z" data-original="#000000" class="active-path" style="fill:#FFFFFF" data-old_color="#000000"/><path d="m80 88a32 32 0 1 0 32 32 32.036 32.036 0 0 0 -32-32zm0 48a16 16 0 1 1 16-16 16.019 16.019 0 0 1 -16 16z" data-original="#000000" class="active-path" style="fill:#FFFFFF" data-old_color="#000000"/><path d="m128 96h16v16h-16z" data-original="#000000" class="active-path" style="fill:#FFFFFF" data-old_color="#000000"/><path d="m160 96h88v16h-88z" data-original="#000000" class="active-path" style="fill:#FFFFFF" data-old_color="#000000"/><path d="m128 128h48v16h-48z" data-original="#000000" class="active-path" style="fill:#FFFFFF" data-old_color="#000000"/><path d="m192 128h24v16h-24z" data-original="#000000" class="active-path" style="fill:#FFFFFF" data-old_color="#000000"/><path d="m246.608 230.078-14.608 14.608-2.343-2.343a8 8 0 0 0 -11.314 0l-64 64a36.284 36.284 0 0 0 51.314 51.313l64-64a8 8 0 0 0 0-11.314l-2.343-2.342 14.608-14.608a72.068 72.068 0 1 0 -35.314-35.314zm-52.265 116.266a20.285 20.285 0 0 1 -28.686-28.688l34.343-34.342 28.686 28.686zm45.657-45.658-28.686-28.686 12.686-12.687 28.687 28.687zm72-156.686a56 56 0 1 1 -56 56 56.063 56.063 0 0 1 56-56zm-44.138 112.824-11.862 11.862-12.686-12.686 11.862-11.862a72.668 72.668 0 0 0 12.686 12.686z" data-original="#000000" class="active-path" style="fill:#FFFFFF" data-old_color="#000000"/><path d="m56 384h16v32h-16z" data-original="#000000" class="active-path" style="fill:#FFFFFF" data-old_color="#000000"/><path d="m80 384h16v32h-16z" data-original="#000000" class="active-path" style="fill:#FFFFFF" data-old_color="#000000"/><path d="m272 376a24.039 24.039 0 0 0 -22.624 16h-137.376v16h137.376a24 24 0 1 0 22.624-32zm0 32a8 8 0 1 1 8-8 8.009 8.009 0 0 1 -8 8z" data-original="#000000" class="active-path" style="fill:#FFFFFF" data-old_color="#000000"/><path d="m312 392h136v16h-136z" data-original="#000000" class="active-path" style="fill:#FFFFFF" data-old_color="#000000"/></g> </svg>
