<svg id="Layer_1" data-name="Layer 1" xmlns="http://www.w3.org/2000/svg" viewBox="0 0 916.76 493.71"><defs><style>.cls-1{opacity:0.45;}.cls-2{fill:#fd5f2a;}.cls-3{fill:#010b15;}.cls-4{opacity:0.5;}.cls-5{fill:#143544;}.cls-6{fill:#fce8e1;}.cls-7{fill:#fff;}.cls-8{fill:#f7f7f8;}.cls-9{fill:#fcd9d0;}.cls-10{fill:#ff6d53;}.cls-11{fill:#02c7a8;}.cls-12{fill:#ee3b16;}.cls-13{fill:#e75b51;}.cls-14{fill:#009475;}.cls-15{fill:#6020bf;}.cls-16{fill:#1e120d;}.cls-17{fill:#d9dade;}.cls-18{fill:#f5a31e;}.cls-19{fill:#fed07a;}.cls-20{fill:#133641;}.cls-21{fill:#e55e52;}.cls-22{fill:#faded3;}</style></defs><g class="cls-1"><ellipse class="cls-2" cx="458.38" cy="470.54" rx="458.38" ry="23.17"/></g><path class="cls-3" d="M211,13.55H772.23a7.6,7.6,0,0,1,7.6,7.6V355.88a0,0,0,0,1,0,0H203.37a0,0,0,0,1,0,0V21.15A7.6,7.6,0,0,1,211,13.55Z"/><g class="cls-4"><path class="cls-5" d="M225.62,446.32V118.93A15,15,0,0,1,240.54,104h546.6a15,15,0,0,1,14.93,14.93Z" transform="translate(-22.24 -90.45)"/></g><path class="cls-6" d="M233.21,446.32H794.47a7.6,7.6,0,0,1,7.6,7.6v45.73a0,0,0,0,1,0,0H225.62a0,0,0,0,1,0,0V453.92A7.6,7.6,0,0,1,233.21,446.32Z" transform="translate(1005.44 855.53) rotate(180)"/><rect class="cls-7" x="225.27" y="35.4" width="532.66" height="299.32"/><polygon class="cls-8" points="225.27 334.72 225.27 35.4 757.93 35.4 757.93 40.91 239.12 334.72 225.27 334.72"/><path class="cls-7" d="M517.16,114.42a3.32,3.32,0,1,1-3.32-3.32A3.32,3.32,0,0,1,517.16,114.42Z" transform="translate(-22.24 -90.45)"/><path class="cls-6" d="M601.44,563.23s-17.1-4.84-21.36-6.47c-2.29-.87-3.13-5.36-3.36-7.38-1.41-12.42-5.33-49.73-5.33-49.73H456.3S452.37,537,451,549.38c-.23,2-1.07,6.51-3.36,7.38-4.26,1.63-21.36,6.47-21.36,6.47a1.5,1.5,0,1,0,0,3H601.44a1.5,1.5,0,1,0,0-3Z" transform="translate(-22.24 -90.45)"/><polygon class="cls-9" points="550.27 419.74 431.11 437.02 434.06 409.2 549.13 409.2 550.27 419.74"/><path class="cls-3" d="M500.26,472.72a15.58,15.58,0,0,0,12.4-12.41.27.27,0,0,1,.54,0,15.56,15.56,0,0,0,12.4,12.41.27.27,0,0,1,0,.53,15.56,15.56,0,0,0-12.4,12.41.27.27,0,0,1-.54,0,15.58,15.58,0,0,0-12.4-12.41A.27.27,0,0,1,500.26,472.72Z" transform="translate(-22.24 -90.45)"/><rect class="cls-9" x="586.42" y="196.14" width="117.26" height="117.26" rx="3.41"/><path class="cls-10" d="M680,309.13a12.91,12.91,0,0,1-12.68,10.62h0a12.93,12.93,0,0,1-12.68-10.6l-13.25,5.26V381.3h51.86V314.41Z" transform="translate(-22.24 -90.45)"/><polygon class="cls-11" points="619.12 223.96 600.67 245.58 615.47 259.85 619.12 256.11 619.12 223.96"/><polygon class="cls-11" points="670.98 223.96 670.98 256.12 674.62 259.85 689.42 245.58 670.98 223.96 670.98 223.96"/><path class="cls-12" d="M680,309.13" transform="translate(-22.24 -90.45)"/><path class="cls-13" d="M680,309.13a12.9,12.9,0,0,1-12.68,10.62V381.3h25.93V314.41Z" transform="translate(-22.24 -90.45)"/><rect class="cls-11" x="619.12" y="279.75" width="51.86" height="5.55"/><rect class="cls-11" x="619.12" y="268.65" width="51.86" height="5.55"/><rect class="cls-11" x="619.12" y="257.55" width="51.86" height="5.55"/><rect class="cls-11" x="619.12" y="246.44" width="51.86" height="5.55"/><rect class="cls-11" x="619.12" y="235.34" width="51.86" height="5.55"/><path class="cls-11" d="M667.29,319.75h0a12.84,12.84,0,0,1-10.23-5.07h-15.7v5.56h51.86v-5.56h-15.7A12.86,12.86,0,0,1,667.29,319.75Z" transform="translate(-22.24 -90.45)"/><path class="cls-11" d="M667.29,320.89a14,14,0,0,1-13.8-11.54,1.14,1.14,0,1,1,2.24-.4,11.75,11.75,0,0,0,23.12,0,1.14,1.14,0,0,1,2.25.4,14,14,0,0,1-13.81,11.56Z" transform="translate(-22.24 -90.45)"/><path class="cls-11" d="M693.22,382.45H641.36a1.15,1.15,0,0,1,0-2.29h51.86a1.15,1.15,0,1,1,0,2.29Z" transform="translate(-22.24 -90.45)"/><rect class="cls-9" x="279.52" y="196.14" width="117.26" height="117.26" rx="3.41"/><path class="cls-11" d="M400.61,369.34a191.2,191.2,0,0,0-12.53-50.73V314a4.89,4.89,0,0,0-4.88-4.89H337.59A4.89,4.89,0,0,0,332.7,314v4.59a191.57,191.57,0,0,0-12.52,50.73,7.21,7.21,0,0,0,5.39,7.69,144,144,0,0,0,69.65,0,7.19,7.19,0,0,0,5.39-7.69Zm-6.18,4.53" transform="translate(-22.24 -90.45)"/><path class="cls-14" d="M400.61,369.34a191.2,191.2,0,0,0-12.53-50.73V314a4.89,4.89,0,0,0-4.88-4.89H360.4V381.3A144,144,0,0,0,395.22,377a7.19,7.19,0,0,0,5.39-7.69Zm-6.18,4.53" transform="translate(-22.24 -90.45)"/><path class="cls-10" d="M355.51,343.34a1.63,1.63,0,1,1-1.63-1.63,1.63,1.63,0,0,1,1.63,1.63Zm0,0" transform="translate(-22.24 -90.45)"/><path class="cls-10" d="M355.51,354.74a1.63,1.63,0,1,1-1.63-1.63,1.63,1.63,0,0,1,1.63,1.63Zm0,0" transform="translate(-22.24 -90.45)"/><path class="cls-10" d="M355.51,366.14a1.63,1.63,0,1,1-1.63-1.63,1.63,1.63,0,0,1,1.63,1.63Zm0,0" transform="translate(-22.24 -90.45)"/><path class="cls-11" d="M386.12,339.56l-.22,0a13,13,0,0,1-10.37-12.65,1.14,1.14,0,0,1,1.14-1.14h0a1.15,1.15,0,0,1,1.15,1.14,10.69,10.69,0,0,0,8.53,10.41,1.14,1.14,0,0,1-.23,2.26Z" transform="translate(-22.24 -90.45)"/><path class="cls-14" d="M334.64,339.56a1.14,1.14,0,0,1-.22-2.26A10.69,10.69,0,0,0,343,326.89a1.14,1.14,0,0,1,1.14-1.15h0a1.16,1.16,0,0,1,1.15,1.15,13,13,0,0,1-10.37,12.65Z" transform="translate(-22.24 -90.45)"/><path class="cls-15" d="M360.4,309.13" transform="translate(-22.24 -90.45)"/><path class="cls-10" d="M388.08,317.46H332.7a1.15,1.15,0,0,0,0,2.29h26.55v48a1.15,1.15,0,0,0,2.29,0V337.06L366,336a2.75,2.75,0,0,0,2.09-2.69V319.75h20a1.15,1.15,0,1,0,0-2.29Zm-22.31,15.8a.49.49,0,0,1-.37.48l-3.86,1V319.75h4.23Z" transform="translate(-22.24 -90.45)"/><rect class="cls-9" x="279.52" y="56.34" width="117.26" height="117.26" rx="3.41"/><path class="cls-16" d="M384.13,187.93a1.32,1.32,0,0,1-.39-.06,1.24,1.24,0,0,1-.79-1.57h0a1.24,1.24,0,1,1,1.18,1.64Z" transform="translate(-22.24 -90.45)"/><path class="cls-17" d="M387.57,176.37l-20,.09a1.25,1.25,0,0,0-1.26,1.22l-.75,33.71a1.25,1.25,0,0,1-.65,1.11l-16.43,9.43a10.26,10.26,0,0,0-4.23,13,10.37,10.37,0,0,0,13.9,5.2L369,235.26q5.08-2.26,10.35-4.06a13.88,13.88,0,0,0,9.47-13.06l0-40.44a1.25,1.25,0,0,0-.34-.94,1.27,1.27,0,0,0-.92-.39Zm0,0" transform="translate(-22.24 -90.45)"/><path class="cls-18" d="M388.82,191.93l-22.8-.14.12-5.21,22.69.14Zm0,0" transform="translate(-22.24 -90.45)"/><path class="cls-18" d="M388.25,221.94a13.9,13.9,0,0,1-8.91,9.28c-1,.34-2,.72-3,1.05a15.38,15.38,0,0,1-1-8c1.19-6.58,7.31-10.09,13.46-11.08,0,4.15.2,6.16-.55,8.74Zm0,0" transform="translate(-22.24 -90.45)"/><path class="cls-18" d="M358.4,240l-.27.11a10.31,10.31,0,0,1-9.64-18.22l.68-.39A34.93,34.93,0,0,1,358.4,240Zm0,0" transform="translate(-22.24 -90.45)"/><path class="cls-16" d="M372.78,181.19a1.09,1.09,0,0,1-.36-.06,1.23,1.23,0,0,1-.83-1.54v0a1.24,1.24,0,1,1,2.37.74A1.26,1.26,0,0,1,372.78,181.19Z" transform="translate(-22.24 -90.45)"/><path class="cls-7" d="M376.22,169.63l-20,.09a1.25,1.25,0,0,0-1.26,1.22l-.75,33.71a1.24,1.24,0,0,1-.65,1.11l-16.43,9.43a10.25,10.25,0,0,0-4.23,13,10.35,10.35,0,0,0,13.9,5.19l10.83-4.87q5.08-2.27,10.35-4.06a13.88,13.88,0,0,0,9.47-13.06l0-40.44a1.25,1.25,0,0,0-.34-.94,1.27,1.27,0,0,0-.92-.39Zm0,0" transform="translate(-22.24 -90.45)"/><path class="cls-18" d="M377.47,185.19l-22.8-.14.12-5.21,22.69.14Zm0,0" transform="translate(-22.24 -90.45)"/><path class="cls-18" d="M376.9,215.2a13.9,13.9,0,0,1-8.91,9.28c-1,.33-2,.71-3,1.05a15.42,15.42,0,0,1-1-8c1.19-6.57,7.31-10.08,13.46-11.08,0,4.16.2,6.17-.55,8.75Zm0,0" transform="translate(-22.24 -90.45)"/><path class="cls-18" d="M347.05,233.29l-.27.12a10.31,10.31,0,0,1-9.64-18.22l.68-.39a34.94,34.94,0,0,1,9.23,18.49Zm0,0" transform="translate(-22.24 -90.45)"/><rect class="cls-9" x="432.97" y="196.14" width="117.26" height="117.26" rx="3.41"/><path class="cls-7" d="M484.91,316.36H542.8a6.32,6.32,0,0,1,.76.06,6,6,0,0,1,1.13.22,6.18,6.18,0,0,1,.76.26,6.93,6.93,0,0,1,1.14.61,7.34,7.34,0,0,1,.76.59,6.81,6.81,0,0,1,1.13,1.27,7.14,7.14,0,0,1,1.22,3.92l-.46,15.9-.76,26.47-.3,10.59a4.82,4.82,0,0,1-.83,2.71,5.27,5.27,0,0,1-.76.87,4.93,4.93,0,0,1-1.14.76,4.62,4.62,0,0,1-.76.3,5.23,5.23,0,0,1-1.13.18H484.33a4.83,4.83,0,0,1-4.83-4.83l-1.52-53A6.94,6.94,0,0,1,484.91,316.36Z" transform="translate(-22.24 -90.45)"/><rect class="cls-17" x="512.97" y="225.91" width="0.76" height="64.72"/><rect class="cls-17" x="514.87" y="225.91" width="0.76" height="64.72"/><rect class="cls-17" x="516.76" y="225.91" width="0.76" height="64.72"/><rect class="cls-17" x="518.66" y="225.91" width="0.76" height="64.72"/><rect class="cls-17" x="499.71" y="225.91" width="0.76" height="64.72"/><rect class="cls-17" x="501.6" y="225.91" width="0.76" height="64.72"/><rect class="cls-17" x="503.5" y="225.91" width="0.76" height="64.72"/><rect class="cls-17" x="505.39" y="225.91" width="0.76" height="64.72"/><rect class="cls-17" x="507.29" y="225.91" width="0.76" height="64.72"/><rect class="cls-17" x="492.13" y="225.91" width="0.76" height="64.72"/><rect class="cls-17" x="494.02" y="225.91" width="0.76" height="64.72"/><rect class="cls-17" x="495.92" y="225.91" width="0.76" height="64.72"/><rect class="cls-17" x="497.81" y="225.91" width="0.76" height="64.72"/><rect class="cls-17" x="509.18" y="225.91" width="0.76" height="64.72"/><rect class="cls-17" x="511.08" y="225.91" width="0.76" height="64.72"/><path class="cls-17" d="M545.45,316.9v63.69a4.62,4.62,0,0,1-.76.3V316.64A6.18,6.18,0,0,1,545.45,316.9Z" transform="translate(-22.24 -90.45)"/><path class="cls-17" d="M547.35,318.1V379a5.27,5.27,0,0,1-.76.87V317.51A7.34,7.34,0,0,1,547.35,318.1Z" transform="translate(-22.24 -90.45)"/><path class="cls-17" d="M549.24,320.84v18.35l-.76,26.47V319.37A6.61,6.61,0,0,1,549.24,320.84Z" transform="translate(-22.24 -90.45)"/><path class="cls-17" d="M542.8,316.36a6.32,6.32,0,0,1,.76.06v64.65h-.76Z" transform="translate(-22.24 -90.45)"/><path class="cls-17" d="M478,323.3a6.94,6.94,0,0,1,6.93-6.94h28.93v64.72H484.32a4.82,4.82,0,0,1-4.82-4.82l-1.52-53Zm0,0" transform="translate(-22.24 -90.45)"/><path class="cls-18" d="M500.35,309.36h27c-1.36,15.18-13.49,23.42-13.49,23.42A32.92,32.92,0,0,1,500.35,309.36Zm-1.29,23.42" transform="translate(-22.24 -90.45)"/><path class="cls-19" d="M486,348.72v14.59a3,3,0,0,0,3,3h11.47a3,3,0,0,0,3-3V348.72Zm17.45,0" transform="translate(-22.24 -90.45)"/><path class="cls-19" d="M527.32,309.36s-.4,13.21-13.05,23.07a1.07,1.07,0,0,0-.86,0c-12.65-9.86-13.06-23.07-13.06-23.07a6.79,6.79,0,0,0-6.76,7.44l2,21.19a1.91,1.91,0,0,0,2.66,1.57l14.45-6.3a1.85,1.85,0,0,0,0,.23v44a1.14,1.14,0,0,0,2.28,0v-44a1.85,1.85,0,0,0,0-.23l14.44,6.3a1.91,1.91,0,0,0,2.67-1.57l2-21.19A6.8,6.8,0,0,0,527.32,309.36Z" transform="translate(-22.24 -90.45)"/><path class="cls-19" d="M518,349.53h0a1.18,1.18,0,0,0,1.18-1.19h0a1.18,1.18,0,0,0-1.18-1.18h0a1.19,1.19,0,0,0-1.19,1.18h0A1.19,1.19,0,0,0,518,349.53Z" transform="translate(-22.24 -90.45)"/><path class="cls-19" d="M518,367.09h0a1.19,1.19,0,0,0,1.18-1.19h0a1.18,1.18,0,0,0-1.18-1.18h0a1.19,1.19,0,0,0-1.19,1.18h0A1.2,1.2,0,0,0,518,367.09Z" transform="translate(-22.24 -90.45)"/><path class="cls-19" d="M518,375.87h0a1.19,1.19,0,0,0,1.18-1.19h0A1.18,1.18,0,0,0,518,373.5h0a1.19,1.19,0,0,0-1.19,1.18h0A1.2,1.2,0,0,0,518,375.87Z" transform="translate(-22.24 -90.45)"/><path class="cls-19" d="M518,358.31h0a1.19,1.19,0,0,0,1.18-1.19h0a1.18,1.18,0,0,0-1.18-1.18h0a1.19,1.19,0,0,0-1.19,1.18h0A1.2,1.2,0,0,0,518,358.31Z" transform="translate(-22.24 -90.45)"/><path class="cls-19" d="M518,340.75h0a1.18,1.18,0,0,0,1.18-1.18h0a1.18,1.18,0,0,0-1.18-1.19h0a1.19,1.19,0,0,0-1.19,1.19h0A1.19,1.19,0,0,0,518,340.75Z" transform="translate(-22.24 -90.45)"/><path class="cls-18" d="M503.4,349.86H486a1.15,1.15,0,0,1,0-2.29H503.4a1.15,1.15,0,0,1,0,2.29Z" transform="translate(-22.24 -90.45)"/><rect class="cls-9" x="586.42" y="56.03" width="117.26" height="117.26" rx="3.41"/><path class="cls-11" d="M670.5,236.17l-3.2-29.57-3.2,29.57H630.34l4.24-45A15.62,15.62,0,0,1,637.2,183l1.16-1.73h57.88L697.4,183a15.62,15.62,0,0,1,2.62,8.14l4.21,45Zm33-5.43" transform="translate(-22.24 -90.45)"/><path class="cls-10" d="M641.34,174h51.92a3,3,0,0,1,3,3v4.26H638.36V177A3,3,0,0,1,641.34,174Z" transform="translate(-22.24 -90.45)"/><path class="cls-14" d="M633.11,206.6h1.62a10.85,10.85,0,0,0,10.85-10.85V181.28h-7.23l-1,1.42a17.25,17.25,0,0,0-2.89,8.81Z" transform="translate(-22.24 -90.45)"/><path class="cls-14" d="M700.26,191.51a17.25,17.25,0,0,0-2.89-8.81l-1-1.42h-7.23v14.47A10.85,10.85,0,0,0,700,206.6h1.45Z" transform="translate(-22.24 -90.45)"/><path class="cls-7" d="M661.55,192.09a1.16,1.16,0,0,1-1.15-1.15v-9.66a1.15,1.15,0,1,1,2.29,0v9.66A1.15,1.15,0,0,1,661.55,192.09Z" transform="translate(-22.24 -90.45)"/><path class="cls-7" d="M671.71,192.09a1.15,1.15,0,0,1-1.14-1.15v-9.66a1.14,1.14,0,1,1,2.28,0v9.66A1.15,1.15,0,0,1,671.71,192.09Z" transform="translate(-22.24 -90.45)"/><rect class="cls-9" x="432.97" y="56.27" width="117.26" height="117.26" rx="3.41"/><path class="cls-10" d="M544.34,205.09a43.89,43.89,0,0,1-5-12c-.94-3.2-2.89-16-3.61-20.86a2.18,2.18,0,0,0-2.16-1.85h-3.11a2.11,2.11,0,0,0-2.11,2.11V193.8a14.52,14.52,0,0,1-29,0V172.52a2.11,2.11,0,0,0-2.12-2.11H494.1a2.16,2.16,0,0,0-2.15,1.85c-.72,4.84-2.67,17.66-3.62,20.86a44.17,44.17,0,0,1-5,12c-2.77,4.33-5.64,8.82-5.59,14.18a19.19,19.19,0,0,0,6.35,14.85h59.47a19.18,19.18,0,0,0,6.34-14.85C550,213.91,547.11,209.42,544.34,205.09Z" transform="translate(-22.24 -90.45)"/><path class="cls-13" d="M513.84,208.18a14.52,14.52,0,0,0,14.52-14.38V172.52a2.11,2.11,0,0,1,2.11-2.11h3.11a2.18,2.18,0,0,1,2.16,1.85c.72,4.84,2.67,17.66,3.61,20.86a43.89,43.89,0,0,0,5,12c2.77,4.33,5.64,8.82,5.58,14.18a19.18,19.18,0,0,1-6.34,14.85H513.84Z" transform="translate(-22.24 -90.45)"/><path class="cls-11" d="M513.85,234.12H484.11v4.06a2.11,2.11,0,0,0,2.11,2.11h55.25a2.12,2.12,0,0,0,2.12-2.11v-4.06Zm0,0" transform="translate(-22.24 -90.45)"/><path class="cls-14" d="M543.59,238.18v-4.06H513.85v6.17h27.62a2.12,2.12,0,0,0,2.12-2.11Zm0,0" transform="translate(-22.24 -90.45)"/><path class="cls-11" d="M170.52,263.35a22.37,22.37,0,0,0,17.82-17.82.38.38,0,0,1,.76,0,22.38,22.38,0,0,0,17.82,17.82.39.39,0,0,1,0,.77,22.38,22.38,0,0,0-17.82,17.82.38.38,0,0,1-.76,0,22.37,22.37,0,0,0-17.82-17.82A.39.39,0,0,1,170.52,263.35Z" transform="translate(-22.24 -90.45)"/><path class="cls-10" d="M822.92,302.81A22.37,22.37,0,0,0,840.74,285a.39.39,0,0,1,.77,0,22.37,22.37,0,0,0,17.82,17.82.39.39,0,0,1,0,.77,22.37,22.37,0,0,0-17.82,17.82.39.39,0,0,1-.77,0,22.37,22.37,0,0,0-17.82-17.82A.39.39,0,0,1,822.92,302.81Z" transform="translate(-22.24 -90.45)"/><path class="cls-10" d="M150.76,233.28a12.75,12.75,0,0,0,10.16-10.16.22.22,0,0,1,.44,0,12.78,12.78,0,0,0,10.16,10.16.22.22,0,0,1,0,.43,12.77,12.77,0,0,0-10.16,10.17.22.22,0,0,1-.44,0,12.75,12.75,0,0,0-10.16-10.17A.22.22,0,0,1,150.76,233.28Z" transform="translate(-22.24 -90.45)"/><path class="cls-11" d="M856.07,239.82a12.76,12.76,0,0,0,10.16-10.16.22.22,0,0,1,.44,0,12.76,12.76,0,0,0,10.16,10.16.22.22,0,0,1,0,.43,12.76,12.76,0,0,0-10.16,10.17.22.22,0,0,1-.44,0,12.76,12.76,0,0,0-10.16-10.17A.22.22,0,0,1,856.07,239.82Z" transform="translate(-22.24 -90.45)"/><path class="cls-18" d="M816.82,178.93A12.74,12.74,0,0,0,827,168.77a.22.22,0,0,1,.44,0,12.74,12.74,0,0,0,10.16,10.16.22.22,0,0,1,0,.44,12.76,12.76,0,0,0-10.16,10.16.22.22,0,0,1-.44,0,12.76,12.76,0,0,0-10.16-10.16A.22.22,0,0,1,816.82,178.93Z" transform="translate(-22.24 -90.45)"/><path class="cls-18" d="M144.36,306.92a2.74,2.74,0,1,1-2.73-2.73A2.74,2.74,0,0,1,144.36,306.92Z" transform="translate(-22.24 -90.45)"/><path class="cls-10" d="M213.17,347.16a2.73,2.73,0,1,1-2.73-2.73A2.73,2.73,0,0,1,213.17,347.16Z" transform="translate(-22.24 -90.45)"/><path class="cls-10" d="M825.33,250.6a2.74,2.74,0,1,1-2.74-2.73A2.74,2.74,0,0,1,825.33,250.6Z" transform="translate(-22.24 -90.45)"/><path class="cls-10" d="M696,515.05a2.74,2.74,0,1,1-2.74-2.73A2.74,2.74,0,0,1,696,515.05Z" transform="translate(-22.24 -90.45)"/><path class="cls-18" d="M349.78,518.92a2.74,2.74,0,1,1-2.73-2.73A2.74,2.74,0,0,1,349.78,518.92Z" transform="translate(-22.24 -90.45)"/><circle class="cls-11" cx="881.99" cy="271.43" r="2.73"/><path class="cls-11" d="M164.51,137.36a2.74,2.74,0,1,1-2.74-2.73A2.74,2.74,0,0,1,164.51,137.36Z" transform="translate(-22.24 -90.45)"/><path class="cls-20" d="M188.72,383.11a2.35,2.35,0,0,1-2.35-2.35,33.2,33.2,0,0,0-66.39,0,2.35,2.35,0,1,1-4.69,0,37.89,37.89,0,0,1,75.78,0A2.35,2.35,0,0,1,188.72,383.11Z" transform="translate(-22.24 -90.45)"/><polygon class="cls-21" points="201.25 466.94 191.99 475.75 180.25 282.38 186.88 288.91 201.25 466.94"/><polygon class="cls-10" points="50.98 406.49 187.79 406.49 186.86 391.22 51.91 391.22 50.98 406.49"/><polygon class="cls-10" points="180.25 282.38 58.52 282.38 57.66 296.54 181.11 296.54 180.25 282.38"/><polygon class="cls-10" points="53.65 362.51 185.12 362.51 184.19 347.24 54.58 347.24 53.65 362.51"/><polygon class="cls-10" points="49.65 428.48 189.12 428.48 188.2 413.21 50.58 413.21 49.65 428.48"/><polygon class="cls-10" points="52.32 384.5 186.45 384.5 185.53 369.23 53.24 369.23 52.32 384.5"/><polygon class="cls-10" points="181.52 303.26 57.25 303.26 56.32 318.53 182.45 318.53 181.52 303.26"/><polygon class="cls-10" points="46.98 472.45 191.79 472.45 190.87 457.19 47.9 457.19 46.98 472.45"/><polygon class="cls-10" points="55.92 325.25 54.99 340.52 183.78 340.52 182.85 325.25 55.92 325.25"/><polygon class="cls-10" points="48.31 450.46 190.46 450.46 189.53 435.2 49.24 435.2 48.31 450.46"/><polygon class="cls-7" points="181.11 296.54 57.66 296.54 57.25 303.26 181.52 303.26 181.11 296.54"/><polygon class="cls-7" points="182.45 318.53 56.32 318.53 55.92 325.25 182.85 325.25 182.45 318.53"/><polygon class="cls-7" points="54.58 347.24 184.19 347.24 183.78 340.52 54.99 340.52 54.58 347.24"/><polygon class="cls-7" points="53.24 369.23 185.53 369.23 185.12 362.51 53.65 362.51 53.24 369.23"/><polygon class="cls-7" points="51.91 391.22 186.86 391.22 186.45 384.5 52.32 384.5 51.91 391.22"/><polygon class="cls-7" points="50.58 413.21 188.2 413.21 187.79 406.49 50.98 406.49 50.58 413.21"/><polygon class="cls-7" points="49.24 435.2 189.53 435.2 189.12 428.48 49.65 428.48 49.24 435.2"/><polygon class="cls-7" points="47.9 457.19 190.87 457.19 190.46 450.46 48.31 450.46 47.9 457.19"/><polygon class="cls-7" points="46.78 475.75 191.99 475.75 191.79 472.45 46.98 472.45 46.78 475.75"/><path class="cls-21" d="M110.87,380.76a4.79,4.79,0,1,1-4.78-4.78A4.78,4.78,0,0,1,110.87,380.76Z" transform="translate(-22.24 -90.45)"/><path class="cls-21" d="M182,380.76a4.78,4.78,0,1,1-4.78-4.78A4.78,4.78,0,0,1,182,380.76Z" transform="translate(-22.24 -90.45)"/><path class="cls-3" d="M177.17,383.11a2.35,2.35,0,0,1-2.35-2.35,33.2,33.2,0,0,0-66.39,0,2.35,2.35,0,1,1-4.69,0,37.89,37.89,0,0,1,75.78,0A2.35,2.35,0,0,1,177.17,383.11Z" transform="translate(-22.24 -90.45)"/><path class="cls-20" d="M277.7,441.82a2.35,2.35,0,0,1-2.35-2.35,33.2,33.2,0,0,0-66.39,0,2.35,2.35,0,1,1-4.69,0,37.89,37.89,0,0,1,75.78,0A2.35,2.35,0,0,1,277.7,441.82Z" transform="translate(-22.24 -90.45)"/><polygon class="cls-11" points="280.97 475.75 135.75 475.75 147.5 341.1 269.23 341.1 280.97 475.75"/><path class="cls-14" d="M199.85,439.47a4.79,4.79,0,1,1-4.79-4.78A4.78,4.78,0,0,1,199.85,439.47Z" transform="translate(-22.24 -90.45)"/><path class="cls-14" d="M270.93,439.47a4.78,4.78,0,1,1-4.78-4.78A4.78,4.78,0,0,1,270.93,439.47Z" transform="translate(-22.24 -90.45)"/><path class="cls-3" d="M266.15,441.82a2.35,2.35,0,0,1-2.35-2.35,33.2,33.2,0,0,0-66.39,0,2.35,2.35,0,0,1-4.7,0,37.9,37.9,0,0,1,75.79,0A2.35,2.35,0,0,1,266.15,441.82Z" transform="translate(-22.24 -90.45)"/><polygon class="cls-14" points="290.23 466.94 280.97 475.75 269.23 341.1 275.86 347.62 290.23 466.94"/><path class="cls-3" d="M214.61,498.43a19.65,19.65,0,0,0,15.66-15.65.34.34,0,0,1,.67,0,19.66,19.66,0,0,0,15.66,15.65.34.34,0,0,1,0,.68,19.67,19.67,0,0,0-15.66,15.65.34.34,0,0,1-.67,0,19.66,19.66,0,0,0-15.66-15.65A.35.35,0,0,1,214.61,498.43Z" transform="translate(-22.24 -90.45)"/><path class="cls-20" d="M843.53,383.72a2.35,2.35,0,0,1-2.35-2.35,33.19,33.19,0,1,0-66.38,0,2.35,2.35,0,0,1-4.7,0,37.89,37.89,0,1,1,75.78,0A2.35,2.35,0,0,1,843.53,383.72Z" transform="translate(-22.24 -90.45)"/><polygon class="cls-19" points="835.06 282.99 764.64 282.99 836.15 300.95 835.06 282.99"/><polygon class="cls-19" points="708.94 355.38 841.48 388.65 840.58 373.82 709.81 340.99 708.94 355.38"/><polygon class="cls-19" points="702.47 461.92 759.99 476.36 818.8 476.36 703.35 447.37 702.47 461.92"/><polygon class="cls-19" points="705.05 419.33 845.48 454.59 844.57 439.59 705.93 404.79 705.05 419.33"/><polygon class="cls-19" points="707.64 376.75 842.82 410.69 841.91 395.69 708.52 362.2 707.64 376.75"/><polygon class="cls-19" points="706.35 397.96 844.15 432.56 843.25 417.72 707.22 383.58 706.35 397.96"/><polygon class="cls-19" points="737.03 282.99 713.33 282.99 712.81 291.58 837.49 322.88 836.58 307.99 737.03 282.99"/><polygon class="cls-19" points="710.22 334.17 840.15 366.78 839.24 351.79 711.11 319.62 710.22 334.17"/><polygon class="cls-19" points="703.76 440.55 846.41 476.36 846.81 476.36 845.91 461.63 704.64 426.16 703.76 440.55"/><polygon class="cls-19" points="711.52 312.79 838.81 344.75 837.91 329.92 712.4 298.41 711.52 312.79"/><polygon class="cls-18" points="712.4 298.41 837.91 329.92 837.49 322.88 712.81 291.58 712.4 298.41"/><polygon class="cls-18" points="836.15 300.95 764.64 282.99 737.03 282.99 836.58 307.99 836.15 300.95"/><polygon class="cls-18" points="711.11 319.62 839.24 351.79 838.81 344.75 711.52 312.79 711.11 319.62"/><polygon class="cls-18" points="709.81 340.99 840.58 373.82 840.15 366.78 710.22 334.17 709.81 340.99"/><polygon class="cls-18" points="708.52 362.2 841.91 395.69 841.48 388.65 708.94 355.38 708.52 362.2"/><polygon class="cls-18" points="707.22 383.58 843.25 417.72 842.82 410.69 707.64 376.75 707.22 383.58"/><polygon class="cls-18" points="705.93 404.79 844.57 439.59 844.15 432.56 706.35 397.96 705.93 404.79"/><polygon class="cls-18" points="704.64 426.16 845.91 461.63 845.48 454.59 705.05 419.33 704.64 426.16"/><polygon class="cls-18" points="703.35 447.37 818.8 476.36 846.41 476.36 703.76 440.55 703.35 447.37"/><polygon class="cls-18" points="856.06 467.55 846.81 476.36 835.06 282.99 841.69 289.52 856.06 467.55"/><path class="cls-18" d="M765.68,381.37a4.78,4.78,0,1,1-4.78-4.78A4.78,4.78,0,0,1,765.68,381.37Z" transform="translate(-22.24 -90.45)"/><path class="cls-18" d="M836.77,381.37a4.79,4.79,0,1,1-4.79-4.78A4.79,4.79,0,0,1,836.77,381.37Z" transform="translate(-22.24 -90.45)"/><path class="cls-3" d="M832,383.72a2.35,2.35,0,0,1-2.34-2.35,33.2,33.2,0,0,0-66.39,0,2.35,2.35,0,0,1-4.7,0,37.89,37.89,0,1,1,75.78,0A2.35,2.35,0,0,1,832,383.72Z" transform="translate(-22.24 -90.45)"/><polygon class="cls-19" points="701.59 476.36 732.38 476.36 702.05 468.74 701.59 476.36"/><polygon class="cls-18" points="702.05 468.74 732.38 476.36 759.99 476.36 702.47 461.92 702.05 468.74"/><circle class="cls-22" cx="186.86" cy="79.96" r="27.28"/><path class="cls-3" d="M205.22,159.59a5.43,5.43,0,0,1,0,7.8,5.7,5.7,0,0,1-7.9,0,5.46,5.46,0,0,1,0-7.8,5.48,5.48,0,0,1,3.95-1.59A5.4,5.4,0,0,1,205.22,159.59Zm-2.63,5.2a1.8,1.8,0,0,0,.52-1.3,1.77,1.77,0,0,0-.52-1.28,1.83,1.83,0,0,0-2.6,0,1.82,1.82,0,0,0,1.3,3.1A1.76,1.76,0,0,0,202.59,164.79Zm-2.11,14.27L215,158.69a1.51,1.51,0,0,1,1.3-.69,1.67,1.67,0,0,1,1.14.49,1.54,1.54,0,0,1,.52,1.14,1.42,1.42,0,0,1-.26.84l-14.53,20.37a1.5,1.5,0,0,1-1.3.69,1.63,1.63,0,0,1-1.13-.49,1.5,1.5,0,0,1-.52-1.14A1.35,1.35,0,0,1,200.48,179.06Zm12.47.87a5.47,5.47,0,0,1,0-7.79,5.66,5.66,0,0,1,7.89,0,5.42,5.42,0,0,1,0,7.79,5.45,5.45,0,0,1-3.94,1.6A5.55,5.55,0,0,1,213,179.93Zm2.67-5.16a1.7,1.7,0,0,0-.52,1.26,1.78,1.78,0,0,0,.52,1.29,1.86,1.86,0,0,0,2.6,0,1.85,1.85,0,0,0,0-2.57,1.73,1.73,0,0,0-1.3-.53A1.69,1.69,0,0,0,215.62,174.77Z" transform="translate(-22.24 -90.45)"/><circle class="cls-11" cx="745.16" cy="117.73" r="27.28" transform="translate(112.76 470.95) rotate(-45)"/><path class="cls-6" d="M737.53,124.66a2.47,2.47,0,0,1,.73-1.79,2.38,2.38,0,0,1,1.74-.74,2.94,2.94,0,0,1,1.62.58,5.63,5.63,0,0,0,3.19,1,3,3,0,0,0,2-.58,1.87,1.87,0,0,0,.71-1.5,2.3,2.3,0,0,0-.65-1.7,6.82,6.82,0,0,0-2.37-1.35,11.28,11.28,0,0,1-4.6-2.94,6.49,6.49,0,0,1-1.41-4.28,5.64,5.64,0,0,1,1.19-3.54,6.12,6.12,0,0,1,3.23-2.17v-1.27a2,2,0,0,1,.6-1.46,2,2,0,0,1,1.48-.62,2,2,0,0,1,1.44.62,2,2,0,0,1,.6,1.46v1.07a10.76,10.76,0,0,1,3,1.07,2.29,2.29,0,0,1,1.29,2.12,2.22,2.22,0,0,1-.69,1.65,2.32,2.32,0,0,1-1.68.69,2.71,2.71,0,0,1-1.33-.4,3.43,3.43,0,0,0-1.62-.45c-1.26,0-1.89.47-1.89,1.4a1.68,1.68,0,0,0,.7,1.3,10.83,10.83,0,0,0,2.65,1.36q5.68,2.28,5.68,7.57a6.59,6.59,0,0,1-5.58,6.82v1.14a2,2,0,0,1-.61,1.46,2,2,0,0,1-1.44.62,2,2,0,0,1-1.48-.62,2,2,0,0,1-.6-1.46v-1.07a11.22,11.22,0,0,1-4.84-2A2.32,2.32,0,0,1,737.53,124.66Z" transform="translate(-22.24 -90.45)"/></svg>