<?xml version="1.0"?>
<svg xmlns="http://www.w3.org/2000/svg" xmlns:xlink="http://www.w3.org/1999/xlink" version="1.1" id="Capa_1" x="0px" y="0px" viewBox="0 0 496 496" style="enable-background:new 0 0 496 496;" xml:space="preserve" width="512" height="512" class=""><g><g>
	<g>
		<g>
			<path d="M34.384,181.04C27.616,202.656,24,225.104,24,248c0,13.928,1.288,27.88,3.832,41.472l15.728-2.936     C41.2,273.912,40,260.944,40,248c0-19.28,2.752-38.224,7.92-56.552C64.12,201.872,83.344,208,104,208     c57.344,0,104-46.656,104-104S161.344,0,104,0S0,46.656,0,104C0,134.56,13.328,162,34.384,181.04z M104,16     c48.52,0,88,39.48,88,88s-39.48,88-88,88s-88-39.48-88-88S55.48,16,104,16z" data-original="#000000" class="active-path" style="fill:#FE9A06" data-old_color="#000000"/>
			<path d="M461.616,314.96C468.384,293.344,472,270.888,472,248c0-13.936-1.288-27.888-3.832-41.472l-15.728,2.944     C454.8,222.088,456,235.048,456,248c0,19.272-2.752,38.216-7.92,56.552C431.88,294.128,412.656,288,392,288     c-57.344,0-104,46.656-104,104s46.656,104,104,104s104-46.656,104-104C496,361.44,482.672,334,461.616,314.96z M392,480     c-48.52,0-88-39.48-88-88c0-48.52,39.48-88,88-88c48.52,0,88,39.48,88,88C480,440.52,440.52,480,392,480z" data-original="#000000" class="active-path" style="fill:#FE9A06" data-old_color="#000000"/>
			<polygon points="96,160 112,160 112,120 144,120 144,104 112,104 112,64 144,64 144,48 96,48 96,104 64,104 64,120 96,120    " data-original="#000000" class="active-path" style="fill:#FE9A06" data-old_color="#000000"/>
			<path d="M128,336H80c-22.056,0-40,17.944-40,40v32c0,22.056,17.944,40,40,40h48c22.056,0,40-17.944,40-40v-32     C168,353.944,150.056,336,128,336z M152,408c0,13.232-10.768,24-24,24H80c-13.232,0-24-10.768-24-24v-32     c0-13.232,10.768-24,24-24h48c13.232,0,24,10.768,24,24V408z" data-original="#000000" class="active-path" style="fill:#FE9A06" data-old_color="#000000"/>
			<path d="M352,445.592L448.472,392L352,338.408V445.592z M368,365.592L415.528,392L368,418.408V365.592z" data-original="#000000" class="active-path" style="fill:#FE9A06" data-old_color="#000000"/>
			<path d="M376,160h32c17.648,0,32-14.352,32-32s-14.352-32-32-32h-32c-8.824,0-16-7.176-16-16s7.176-16,16-16h32     c8.824,0,16,7.176,16,16v8h16v-8c0-17.648-14.352-32-32-32h-32c-17.648,0-32,14.352-32,32s14.352,32,32,32h32     c8.824,0,16,7.176,16,16s-7.176,16-16,16h-32c-8.824,0-16-7.176-16-16v-8h-16v8C344,145.648,358.352,160,376,160z" data-original="#000000" class="active-path" style="fill:#FE9A06" data-old_color="#000000"/>
			<path d="M104,368c-13.232,0-24,10.768-24,24s10.768,24,24,24s24-10.768,24-24S117.232,368,104,368z M104,400     c-4.408,0-8-3.584-8-8c0-4.416,3.592-8,8-8s8,3.584,8,8C112,396.416,108.408,400,104,400z" data-original="#000000" class="active-path" style="fill:#FE9A06" data-old_color="#000000"/>
			<path d="M304.616,47.816C294.152,64.04,288,83.296,288,104c0,57.344,46.656,104,104,104s104-46.656,104-104S449.344,0,392,0     c-30.536,0-57.944,13.304-76.992,34.328c-34.872-10.896-72.56-13.216-108.48-6.496l2.944,15.728     C240.888,37.68,273.824,39.16,304.616,47.816z M392,16c48.52,0,88,39.48,88,88s-39.48,88-88,88c-48.52,0-88-39.48-88-88     S343.48,16,392,16z" data-original="#000000" class="active-path" style="fill:#FE9A06" data-old_color="#000000"/>
			<path d="M191.384,448.184C201.848,431.96,208,412.704,208,392c0-57.344-46.656-104-104-104S0,334.656,0,392s46.656,104,104,104     c30.56,0,58-13.328,77.04-34.392C202.648,468.384,225.096,472,248,472c13.96,0,27.912-1.288,41.472-3.832l-2.944-15.72     C255.176,458.32,222.184,456.832,191.384,448.184z M104,480c-48.52,0-88-39.48-88-88c0-48.52,39.48-88,88-88s88,39.48,88,88     C192,440.52,152.52,480,104,480z" data-original="#000000" class="active-path" style="fill:#FE9A06" data-old_color="#000000"/>
			<path d="M304,248c0-30.88-25.12-56-56-56s-56,25.12-56,56c0,30.872,25.12,56,56,56S304,278.872,304,248z M248,288     c-22.056,0-40-17.944-40-40c0-22.056,17.944-40,40-40c22.056,0,40,17.944,40,40C288,270.056,270.056,288,248,288z" data-original="#000000" class="active-path" style="fill:#FE9A06" data-old_color="#000000"/>
			<rect x="320" y="240" width="16" height="16" data-original="#000000" class="active-path" style="fill:#FE9A06" data-old_color="#000000"/>
			<rect x="240" y="160" width="16" height="16" data-original="#000000" class="active-path" style="fill:#FE9A06" data-old_color="#000000"/>
			<rect x="240" y="320" width="16" height="16" data-original="#000000" class="active-path" style="fill:#FE9A06" data-old_color="#000000"/>
			<rect x="160" y="240" width="16" height="16" data-original="#000000" class="active-path" style="fill:#FE9A06" data-old_color="#000000"/>
		</g>
	</g>
</g></g> </svg>
