<?xml version="1.0"?>
<svg xmlns="http://www.w3.org/2000/svg" xmlns:xlink="http://www.w3.org/1999/xlink" xmlns:svgjs="http://svgjs.com/svgjs" version="1.1" width="512" height="512" x="0" y="0" viewBox="0 0 512 512" style="enable-background:new 0 0 512 512" xml:space="preserve" class=""><g><path xmlns="http://www.w3.org/2000/svg" d="M488,64H24a8,8,0,0,0-8,8V408a8,8,0,0,0,8,8H164.9l-12.49,37.47A8,8,0,0,0,160,464H352a8,8,0,0,0,7.59-10.53L347.1,416H488a8,8,0,0,0,8-8V72A8,8,0,0,0,488,64ZM171.1,448l10.666-32H330.233L340.9,448ZM480,400H32V352H480Zm0-64H32V80H480Z" fill="#000000" data-original="#000000" style="" class=""/><path xmlns="http://www.w3.org/2000/svg" d="M56,304H264a8,8,0,0,0,8-8V248a40.051,40.051,0,0,0-24-36.65V152a24.028,24.028,0,0,0-24-24H96a24.028,24.028,0,0,0-24,24v59.35A40.051,40.051,0,0,0,48,248v48A8,8,0,0,0,56,304ZM88,152a8.009,8.009,0,0,1,8-8H224a8.009,8.009,0,0,1,8,8v56H208v-8a24.027,24.027,0,0,0-24-24H136a24.027,24.027,0,0,0-24,24v8H88Zm104,48v8H128v-8a8.009,8.009,0,0,1,8-8h48A8.009,8.009,0,0,1,192,200ZM64,248a24.028,24.028,0,0,1,24-24H232a24.028,24.028,0,0,1,24,24v8H64Zm0,24H256v16H64Z" fill="#000000" data-original="#000000" style="" class=""/><path xmlns="http://www.w3.org/2000/svg" d="M296,240h64a8,8,0,0,0,8-8V200a8,8,0,0,0-8-8H296a8,8,0,0,0-8,8v32A8,8,0,0,0,296,240Zm8-32h48v16H304Z" fill="#000000" data-original="#000000" style="" class=""/><path xmlns="http://www.w3.org/2000/svg" d="M296,176h64a8,8,0,0,0,8-8V136a8,8,0,0,0-8-8H296a8,8,0,0,0-8,8v32A8,8,0,0,0,296,176Zm8-32h48v16H304Z" fill="#000000" data-original="#000000" style="" class=""/><path xmlns="http://www.w3.org/2000/svg" d="M392,144h64a8,8,0,0,0,0-16H392a8,8,0,0,0,0,16Z" fill="#000000" data-original="#000000" style="" class=""/><path xmlns="http://www.w3.org/2000/svg" d="M392,176h64a8,8,0,0,0,0-16H392a8,8,0,0,0,0,16Z" fill="#000000" data-original="#000000" style="" class=""/><path xmlns="http://www.w3.org/2000/svg" d="M392,208h64a8,8,0,0,0,0-16H392a8,8,0,0,0,0,16Z" fill="#000000" data-original="#000000" style="" class=""/><path xmlns="http://www.w3.org/2000/svg" d="M392,240h64a8,8,0,0,0,0-16H392a8,8,0,0,0,0,16Z" fill="#000000" data-original="#000000" style="" class=""/><path xmlns="http://www.w3.org/2000/svg" d="M392,304a8,8,0,0,0,8-8V283.315l18.343,18.342a8,8,0,0,0,11.314-11.314L411.314,272H424a8,8,0,0,0,0-16H392a8,8,0,0,0-8,8v32A8,8,0,0,0,392,304Z" fill="#000000" data-original="#000000" style="" class=""/></g></svg>
